M48
; DRILL file {KiCad 5.1.9+dfsg1-1} date Tue Nov 16 15:54:53 2021
; FORMAT={-:-/ absolute / inch / decimal}
; #@! TF.CreationDate,2021-11-16T15:54:53+11:00
; #@! TF.GenerationSoftware,Kicad,Pcbnew,5.1.9+dfsg1-1
; #@! TF.FileFunction,Plated,1,2,PTH
FMAT,2
INCH
T1C0.0157
T2C0.0276
T3C0.0394
T4C0.0630
T5C0.0669
%
G90
G05
T1
X7.9232Y-4.4291
X7.9626Y-5.2067
X7.9724Y-3.7992
X8.0118Y-5.8465
X8.0315Y-3.3957
X8.2067Y-3.5965
X8.2185Y-4.0551
X8.2429Y-3.9006
X8.2933Y-3.8366
X8.3051Y-3.6063
X8.3661Y-4.6358
X8.4035Y-3.6063
X8.4055Y-4.0748
X8.4075Y-5.1713
X8.4154Y-5.3937
X8.4646Y-4.8327
X8.5138Y-3.5984
X8.5846Y-5.0276
X8.6004Y-5.5472
X8.6181Y-4.0748
X8.628Y-3.6063
X8.6319Y-4.5669
X8.6417Y-5.3248
X8.6909Y-4.2224
X8.7055Y-3.7392
X8.7244Y-4.8839
X8.7303Y-5.0157
X8.7618Y-3.6024
X8.7894Y-4.7047
X8.7992Y-4.2323
X8.7992Y-4.4882
X8.811Y-4.8091
X8.8445Y-4.8819
X8.8622Y-4.0748
X8.8681Y-4.439
X8.8681Y-4.9803
X8.9075Y-3.6024
X8.937Y-4.5177
X8.9449Y-4.75
X8.9449Y-4.8366
X8.9469Y-4.3799
X8.9469Y-5.0591
X8.9528Y-4.2441
X8.9862Y-4.7933
X9.0025Y-4.6545
X9.0059Y-5.0591
X9.0138Y-3.5945
X9.0335Y-4.75
X9.0335Y-4.8366
X9.0354Y-4.0551
X9.0354Y-4.3307
X9.0354Y-4.5079
X9.0551Y-3.937
X9.0748Y-4.126
X9.1024Y-5.2992
X9.1043Y-4.9213
X9.1102Y-4.1614
X9.1142Y-4.6988
X9.128Y-3.5945
X9.1309Y-4.7328
X9.1437Y-4.5374
X9.1535Y-3.8386
X9.1535Y-4.7835
X9.1592Y-4.7005
X9.1654Y-4.0315
X9.1732Y-4.2028
X9.1732Y-5.0591
X9.2028Y-4.3504
X9.2067Y-3.6024
X9.2087Y-4.7126
X9.2126Y-4.9213
X9.2323Y-4.5669
X9.252Y-5.0591
X9.2598Y-4.122
X9.2618Y-4.4488
X9.3012Y-3.5925
X9.3307Y-4.9016
X9.3504Y-4.8327
X9.3868Y-4.9213
X9.3898Y-4.685
X9.3996Y-4.3209
X9.4193Y-4.4193
X9.4193Y-4.9705
X9.4291Y-3.5925
X9.439Y-4.0945
X9.4449Y-3.8268
X9.4587Y-3.9665
X9.4685Y-5.0394
X9.4724Y-5.185
X9.4783Y-5.3839
X9.5079Y-3.6024
X9.5571Y-4.3012
X9.5669Y-4.8917
X9.5866Y-3.6024
X9.5866Y-4.9803
X9.5965Y-4.124
X9.6063Y-5.1673
X9.626Y-4.3209
X9.6654Y-4.8917
X9.6811Y-4.2126
X9.685Y-4.4094
X9.685Y-4.813
X9.685Y-5.0591
X9.6949Y-5.8465
X9.7028Y-4.6417
X9.7047Y-3.5925
X9.7047Y-5.6299
X9.7146Y-5.1476
X9.7323Y-4.7008
X9.7343Y-4.0354
X9.7343Y-4.4094
X9.7343Y-5.3346
X9.7736Y-3.6122
X9.7736Y-5.4429
X9.7835Y-4.0354
X9.7835Y-4.4094
X9.813Y-4.2323
X9.8228Y-5.1673
X9.8327Y-4.0354
X9.8327Y-4.4094
X9.8386Y-4.8976
X9.8819Y-4.0354
X9.8819Y-4.4094
X9.9055Y-3.938
X9.9213Y-5.3445
X9.9311Y-4.0354
X9.9311Y-4.4094
X9.9311Y-4.6161
X9.9409Y-3.6122
X9.9508Y-5.1476
X9.9567Y-3.8386
X9.9803Y-4.4094
X9.9902Y-4.0354
X10.0039Y-3.7402
X10.0055Y-3.938
X10.0295Y-5.0
X10.0394Y-4.0354
X10.0394Y-4.4094
X10.0689Y-5.4528
X10.0886Y-4.0354
X10.0886Y-4.4094
X10.1055Y-3.7392
X10.1378Y-4.0354
X10.1378Y-4.4094
X10.1378Y-5.187
X10.1575Y-4.9902
X10.187Y-4.0354
X10.187Y-5.4035
X10.2067Y-4.2224
X10.2264Y-4.5079
X10.2461Y-3.9764
X10.2756Y-3.376
X10.2854Y-4.3346
X10.2854Y-4.9508
X10.315Y-5.2657
X10.315Y-5.8366
X10.3937Y-3.9567
X10.3937Y-4.4882
T2
X8.2055Y-3.7392
X8.3055Y-3.7392
X9.0055Y-3.9236
X9.2825Y-4.7091
X9.4045Y-4.2372
X9.5453Y-4.4035
X9.7047Y-4.5768
X9.8556Y-4.6917
T3
X8.2185Y-3.4039
X8.2185Y-3.5039
X8.3185Y-3.4039
X8.3185Y-3.5039
X8.4185Y-3.4039
X8.4185Y-3.5039
X8.5185Y-3.4039
X8.5185Y-3.5039
X8.6185Y-3.4039
X8.6185Y-3.5039
X8.7185Y-3.4039
X8.7185Y-3.5039
X8.8185Y-3.4039
X8.8185Y-3.5039
X8.9185Y-3.4039
X8.9185Y-3.5039
X9.0185Y-3.4039
X9.0185Y-3.5039
X9.1185Y-3.4039
X9.1185Y-3.5039
X9.2185Y-3.4039
X9.2185Y-3.5039
X9.3185Y-3.4039
X9.3185Y-3.5039
X9.4185Y-3.4039
X9.4185Y-3.5039
X9.5185Y-3.4039
X9.5185Y-3.5039
X9.6185Y-3.4039
X9.6185Y-3.5039
X9.7185Y-3.4039
X9.7185Y-3.5039
X9.8185Y-3.4039
X9.8185Y-3.5039
X9.9185Y-3.4039
X9.9185Y-3.5039
X10.0185Y-3.4039
X10.0185Y-3.5039
X10.1185Y-3.4039
X10.1185Y-3.5039
T4
X8.4055Y-5.502
X8.9567Y-5.502
X9.6752Y-5.502
X10.2264Y-5.502
T5
G00X8.2323Y-5.7087
M15
G01X8.2638Y-5.7087
M16
G05
G00X8.7835Y-5.7087
M15
G01X8.815Y-5.7087
M16
G05
G00X9.502Y-5.7087
M15
G01X9.5335Y-5.7087
M16
G05
G00X10.0531Y-5.7087
M15
G01X10.0846Y-5.7087
M16
G05
T0
M30
