G04 #@! TF.GenerationSoftware,KiCad,Pcbnew,5.1.9+dfsg1-1*
G04 #@! TF.CreationDate,2021-11-16T15:54:50+11:00*
G04 #@! TF.ProjectId,RAMPlatterHybrid,52414d50-6c61-4747-9465-724879627269,rev?*
G04 #@! TF.SameCoordinates,Original*
G04 #@! TF.FileFunction,Legend,Bot*
G04 #@! TF.FilePolarity,Positive*
%FSLAX45Y45*%
G04 Gerber Fmt 4.5, Leading zero omitted, Abs format (unit mm)*
G04 Created by KiCad (PCBNEW 5.1.9+dfsg1-1) date 2021-11-16 15:54:50*
%MOMM*%
%LPD*%
G01*
G04 APERTURE LIST*
G04 #@! TA.AperFunction,Profile*
%ADD10C,0.100000*%
G04 #@! TD*
%ADD11C,0.120000*%
%ADD12C,0.150000*%
G04 APERTURE END LIST*
D10*
X20000000Y-9700000D02*
X19995000Y-8755000D01*
X26500000Y-9700000D02*
X26495000Y-8755000D01*
X20049913Y-13050000D02*
G75*
G03*
X20000000Y-13100000I87J-50000D01*
G01*
X20450000Y-13050000D02*
G75*
G03*
X20500000Y-13000000I0J50000D01*
G01*
X20000000Y-11300000D02*
G75*
G03*
X20050000Y-11350000I50000J0D01*
G01*
X20500000Y-11400000D02*
G75*
G03*
X20450000Y-11350000I-50000J0D01*
G01*
X20000000Y-9700000D02*
X20000000Y-11300000D01*
X26495000Y-8755000D02*
G75*
G03*
X26195000Y-8455000I-300000J0D01*
G01*
X26200000Y-15000000D02*
G75*
G03*
X26500000Y-14700000I0J300000D01*
G01*
X20000000Y-14700000D02*
G75*
G03*
X20300000Y-15000000I300000J0D01*
G01*
X20295000Y-8455000D02*
G75*
G03*
X19995000Y-8755000I0J-300000D01*
G01*
X26195000Y-8455000D02*
X20295000Y-8455000D01*
X20450000Y-13050000D02*
X20050000Y-13050000D01*
X20500000Y-11400000D02*
X20500000Y-13000000D01*
X20050000Y-11350000D02*
X20450000Y-11350000D01*
X26500000Y-14700000D02*
X26500000Y-9700000D01*
X20300000Y-15000000D02*
X26200000Y-15000000D01*
X20000000Y-13100000D02*
X20000000Y-14700000D01*
D11*
X20709000Y-9490000D02*
X20709000Y-10010000D01*
X25801000Y-9490000D02*
X25801000Y-10010000D01*
X20766000Y-9346000D02*
X20766000Y-9490000D01*
X20709000Y-9490000D02*
X20766000Y-9490000D01*
X20709000Y-10010000D02*
X20766000Y-10010000D01*
X25744000Y-9490000D02*
X25801000Y-9490000D01*
X25744000Y-10010000D02*
X25801000Y-10010000D01*
X20918000Y-10010000D02*
X21020000Y-10010000D01*
X20918000Y-9490000D02*
X21020000Y-9490000D01*
X21172000Y-10010000D02*
X21274000Y-10010000D01*
X21172000Y-9490000D02*
X21274000Y-9490000D01*
X21426000Y-10010000D02*
X21528000Y-10010000D01*
X21426000Y-9490000D02*
X21528000Y-9490000D01*
X21680000Y-10010000D02*
X21782000Y-10010000D01*
X21680000Y-9490000D02*
X21782000Y-9490000D01*
X21934000Y-10010000D02*
X22036000Y-10010000D01*
X21934000Y-9490000D02*
X22036000Y-9490000D01*
X22188000Y-10010000D02*
X22290000Y-10010000D01*
X22188000Y-9490000D02*
X22290000Y-9490000D01*
X22442000Y-10010000D02*
X22544000Y-10010000D01*
X22442000Y-9490000D02*
X22544000Y-9490000D01*
X22696000Y-10010000D02*
X22798000Y-10010000D01*
X22696000Y-9490000D02*
X22798000Y-9490000D01*
X22950000Y-10010000D02*
X23052000Y-10010000D01*
X22950000Y-9490000D02*
X23052000Y-9490000D01*
X23204000Y-10010000D02*
X23306000Y-10010000D01*
X23204000Y-9490000D02*
X23306000Y-9490000D01*
X23458000Y-10010000D02*
X23560000Y-10010000D01*
X23458000Y-9490000D02*
X23560000Y-9490000D01*
X23712000Y-10010000D02*
X23814000Y-10010000D01*
X23712000Y-9490000D02*
X23814000Y-9490000D01*
X23966000Y-10010000D02*
X24068000Y-10010000D01*
X23966000Y-9490000D02*
X24068000Y-9490000D01*
X24220000Y-10010000D02*
X24322000Y-10010000D01*
X24220000Y-9490000D02*
X24322000Y-9490000D01*
X24474000Y-10010000D02*
X24576000Y-10010000D01*
X24474000Y-9490000D02*
X24576000Y-9490000D01*
X24728000Y-10010000D02*
X24830000Y-10010000D01*
X24728000Y-9490000D02*
X24830000Y-9490000D01*
X24982000Y-10010000D02*
X25084000Y-10010000D01*
X24982000Y-9490000D02*
X25084000Y-9490000D01*
X25236000Y-10010000D02*
X25338000Y-10010000D01*
X25236000Y-9490000D02*
X25338000Y-9490000D01*
X25490000Y-10010000D02*
X25592000Y-10010000D01*
X25490000Y-9490000D02*
X25592000Y-9490000D01*
X23015000Y-12135000D02*
X23015000Y-11855000D01*
X23015000Y-11855000D02*
X22815000Y-11855000D01*
X22815000Y-11855000D02*
X22815000Y-12135000D01*
X22815000Y-12135000D02*
X23015000Y-12135000D01*
D12*
X20554238Y-9716667D02*
X20625667Y-9716667D01*
X20639952Y-9711905D01*
X20649476Y-9702381D01*
X20654238Y-9688095D01*
X20654238Y-9678571D01*
X20654238Y-9816667D02*
X20654238Y-9759524D01*
X20654238Y-9788095D02*
X20554238Y-9788095D01*
X20568524Y-9778571D01*
X20578048Y-9769048D01*
X20582810Y-9759524D01*
X23040238Y-11911667D02*
X23111667Y-11911667D01*
X23125952Y-11906905D01*
X23135476Y-11897381D01*
X23140238Y-11883095D01*
X23140238Y-11873571D01*
X23140238Y-11959286D02*
X23040238Y-11959286D01*
X23040238Y-11997381D01*
X23045000Y-12006905D01*
X23049762Y-12011667D01*
X23059286Y-12016428D01*
X23073571Y-12016428D01*
X23083095Y-12011667D01*
X23087857Y-12006905D01*
X23092619Y-11997381D01*
X23092619Y-11959286D01*
X23040238Y-12049762D02*
X23040238Y-12111667D01*
X23078333Y-12078333D01*
X23078333Y-12092619D01*
X23083095Y-12102143D01*
X23087857Y-12106905D01*
X23097381Y-12111667D01*
X23121190Y-12111667D01*
X23130714Y-12106905D01*
X23135476Y-12102143D01*
X23140238Y-12092619D01*
X23140238Y-12064048D01*
X23135476Y-12054524D01*
X23130714Y-12049762D01*
M02*
