G04 #@! TF.GenerationSoftware,KiCad,Pcbnew,5.1.9+dfsg1-1*
G04 #@! TF.CreationDate,2021-11-16T15:54:50+11:00*
G04 #@! TF.ProjectId,RAMPlatterHybrid,52414d50-6c61-4747-9465-724879627269,rev?*
G04 #@! TF.SameCoordinates,Original*
G04 #@! TF.FileFunction,Soldermask,Top*
G04 #@! TF.FilePolarity,Negative*
%FSLAX45Y45*%
G04 Gerber Fmt 4.5, Leading zero omitted, Abs format (unit mm)*
G04 Created by KiCad (PCBNEW 5.1.9+dfsg1-1) date 2021-11-16 15:54:50*
%MOMM*%
%LPD*%
G01*
G04 APERTURE LIST*
G04 #@! TA.AperFunction,Profile*
%ADD10C,0.100000*%
G04 #@! TD*
%ADD11R,4.000000X3.200000*%
%ADD12C,3.000000*%
%ADD13R,3.800000X2.000000*%
%ADD14R,1.500000X2.000000*%
%ADD15R,3.300000X3.300000*%
%ADD16R,1.500000X1.000000*%
%ADD17R,1.700000X1.700000*%
%ADD18O,1.700000X1.700000*%
G04 APERTURE END LIST*
D10*
X20000000Y-9700000D02*
X19995000Y-8755000D01*
X26500000Y-9700000D02*
X26495000Y-8755000D01*
X20049913Y-13050000D02*
G75*
G03*
X20000000Y-13100000I87J-50000D01*
G01*
X20450000Y-13050000D02*
G75*
G03*
X20500000Y-13000000I0J50000D01*
G01*
X20000000Y-11300000D02*
G75*
G03*
X20050000Y-11350000I50000J0D01*
G01*
X20500000Y-11400000D02*
G75*
G03*
X20450000Y-11350000I-50000J0D01*
G01*
X20000000Y-9700000D02*
X20000000Y-11300000D01*
X26495000Y-8755000D02*
G75*
G03*
X26195000Y-8455000I-300000J0D01*
G01*
X26200000Y-15000000D02*
G75*
G03*
X26500000Y-14700000I0J300000D01*
G01*
X20000000Y-14700000D02*
G75*
G03*
X20300000Y-15000000I300000J0D01*
G01*
X20295000Y-8455000D02*
G75*
G03*
X19995000Y-8755000I0J-300000D01*
G01*
X26195000Y-8455000D02*
X20295000Y-8455000D01*
X20450000Y-13050000D02*
X20050000Y-13050000D01*
X20500000Y-11400000D02*
X20500000Y-13000000D01*
X20050000Y-11350000D02*
X20450000Y-11350000D01*
X26500000Y-14700000D02*
X26500000Y-9700000D01*
X20300000Y-15000000D02*
X26200000Y-15000000D01*
X20000000Y-13100000D02*
X20000000Y-14700000D01*
D11*
X22350000Y-14500000D03*
X20950000Y-14500000D03*
D12*
X22750000Y-13975000D03*
X21350000Y-13975000D03*
G36*
G01*
X24489000Y-11295000D02*
X24459000Y-11295000D01*
G75*
G02*
X24444000Y-11280000I0J15000D01*
G01*
X24444000Y-11105000D01*
G75*
G02*
X24459000Y-11090000I15000J0D01*
G01*
X24489000Y-11090000D01*
G75*
G02*
X24504000Y-11105000I0J-15000D01*
G01*
X24504000Y-11280000D01*
G75*
G02*
X24489000Y-11295000I-15000J0D01*
G01*
G37*
G36*
G01*
X24616000Y-11295000D02*
X24586000Y-11295000D01*
G75*
G02*
X24571000Y-11280000I0J15000D01*
G01*
X24571000Y-11105000D01*
G75*
G02*
X24586000Y-11090000I15000J0D01*
G01*
X24616000Y-11090000D01*
G75*
G02*
X24631000Y-11105000I0J-15000D01*
G01*
X24631000Y-11280000D01*
G75*
G02*
X24616000Y-11295000I-15000J0D01*
G01*
G37*
G36*
G01*
X24743000Y-11295000D02*
X24713000Y-11295000D01*
G75*
G02*
X24698000Y-11280000I0J15000D01*
G01*
X24698000Y-11105000D01*
G75*
G02*
X24713000Y-11090000I15000J0D01*
G01*
X24743000Y-11090000D01*
G75*
G02*
X24758000Y-11105000I0J-15000D01*
G01*
X24758000Y-11280000D01*
G75*
G02*
X24743000Y-11295000I-15000J0D01*
G01*
G37*
G36*
G01*
X24870000Y-11295000D02*
X24840000Y-11295000D01*
G75*
G02*
X24825000Y-11280000I0J15000D01*
G01*
X24825000Y-11105000D01*
G75*
G02*
X24840000Y-11090000I15000J0D01*
G01*
X24870000Y-11090000D01*
G75*
G02*
X24885000Y-11105000I0J-15000D01*
G01*
X24885000Y-11280000D01*
G75*
G02*
X24870000Y-11295000I-15000J0D01*
G01*
G37*
G36*
G01*
X24997000Y-11295000D02*
X24967000Y-11295000D01*
G75*
G02*
X24952000Y-11280000I0J15000D01*
G01*
X24952000Y-11105000D01*
G75*
G02*
X24967000Y-11090000I15000J0D01*
G01*
X24997000Y-11090000D01*
G75*
G02*
X25012000Y-11105000I0J-15000D01*
G01*
X25012000Y-11280000D01*
G75*
G02*
X24997000Y-11295000I-15000J0D01*
G01*
G37*
G36*
G01*
X25124000Y-11295000D02*
X25094000Y-11295000D01*
G75*
G02*
X25079000Y-11280000I0J15000D01*
G01*
X25079000Y-11105000D01*
G75*
G02*
X25094000Y-11090000I15000J0D01*
G01*
X25124000Y-11090000D01*
G75*
G02*
X25139000Y-11105000I0J-15000D01*
G01*
X25139000Y-11280000D01*
G75*
G02*
X25124000Y-11295000I-15000J0D01*
G01*
G37*
G36*
G01*
X25251000Y-11295000D02*
X25221000Y-11295000D01*
G75*
G02*
X25206000Y-11280000I0J15000D01*
G01*
X25206000Y-11105000D01*
G75*
G02*
X25221000Y-11090000I15000J0D01*
G01*
X25251000Y-11090000D01*
G75*
G02*
X25266000Y-11105000I0J-15000D01*
G01*
X25266000Y-11280000D01*
G75*
G02*
X25251000Y-11295000I-15000J0D01*
G01*
G37*
G36*
G01*
X25378000Y-11295000D02*
X25348000Y-11295000D01*
G75*
G02*
X25333000Y-11280000I0J15000D01*
G01*
X25333000Y-11105000D01*
G75*
G02*
X25348000Y-11090000I15000J0D01*
G01*
X25378000Y-11090000D01*
G75*
G02*
X25393000Y-11105000I0J-15000D01*
G01*
X25393000Y-11280000D01*
G75*
G02*
X25378000Y-11295000I-15000J0D01*
G01*
G37*
G36*
G01*
X25505000Y-11295000D02*
X25475000Y-11295000D01*
G75*
G02*
X25460000Y-11280000I0J15000D01*
G01*
X25460000Y-11105000D01*
G75*
G02*
X25475000Y-11090000I15000J0D01*
G01*
X25505000Y-11090000D01*
G75*
G02*
X25520000Y-11105000I0J-15000D01*
G01*
X25520000Y-11280000D01*
G75*
G02*
X25505000Y-11295000I-15000J0D01*
G01*
G37*
G36*
G01*
X25632000Y-11295000D02*
X25602000Y-11295000D01*
G75*
G02*
X25587000Y-11280000I0J15000D01*
G01*
X25587000Y-11105000D01*
G75*
G02*
X25602000Y-11090000I15000J0D01*
G01*
X25632000Y-11090000D01*
G75*
G02*
X25647000Y-11105000I0J-15000D01*
G01*
X25647000Y-11280000D01*
G75*
G02*
X25632000Y-11295000I-15000J0D01*
G01*
G37*
G36*
G01*
X25759000Y-11295000D02*
X25729000Y-11295000D01*
G75*
G02*
X25714000Y-11280000I0J15000D01*
G01*
X25714000Y-11105000D01*
G75*
G02*
X25729000Y-11090000I15000J0D01*
G01*
X25759000Y-11090000D01*
G75*
G02*
X25774000Y-11105000I0J-15000D01*
G01*
X25774000Y-11280000D01*
G75*
G02*
X25759000Y-11295000I-15000J0D01*
G01*
G37*
G36*
G01*
X25886000Y-11295000D02*
X25856000Y-11295000D01*
G75*
G02*
X25841000Y-11280000I0J15000D01*
G01*
X25841000Y-11105000D01*
G75*
G02*
X25856000Y-11090000I15000J0D01*
G01*
X25886000Y-11090000D01*
G75*
G02*
X25901000Y-11105000I0J-15000D01*
G01*
X25901000Y-11280000D01*
G75*
G02*
X25886000Y-11295000I-15000J0D01*
G01*
G37*
G36*
G01*
X25886000Y-10365000D02*
X25856000Y-10365000D01*
G75*
G02*
X25841000Y-10350000I0J15000D01*
G01*
X25841000Y-10175000D01*
G75*
G02*
X25856000Y-10160000I15000J0D01*
G01*
X25886000Y-10160000D01*
G75*
G02*
X25901000Y-10175000I0J-15000D01*
G01*
X25901000Y-10350000D01*
G75*
G02*
X25886000Y-10365000I-15000J0D01*
G01*
G37*
G36*
G01*
X25759000Y-10365000D02*
X25729000Y-10365000D01*
G75*
G02*
X25714000Y-10350000I0J15000D01*
G01*
X25714000Y-10175000D01*
G75*
G02*
X25729000Y-10160000I15000J0D01*
G01*
X25759000Y-10160000D01*
G75*
G02*
X25774000Y-10175000I0J-15000D01*
G01*
X25774000Y-10350000D01*
G75*
G02*
X25759000Y-10365000I-15000J0D01*
G01*
G37*
G36*
G01*
X25632000Y-10365000D02*
X25602000Y-10365000D01*
G75*
G02*
X25587000Y-10350000I0J15000D01*
G01*
X25587000Y-10175000D01*
G75*
G02*
X25602000Y-10160000I15000J0D01*
G01*
X25632000Y-10160000D01*
G75*
G02*
X25647000Y-10175000I0J-15000D01*
G01*
X25647000Y-10350000D01*
G75*
G02*
X25632000Y-10365000I-15000J0D01*
G01*
G37*
G36*
G01*
X25505000Y-10365000D02*
X25475000Y-10365000D01*
G75*
G02*
X25460000Y-10350000I0J15000D01*
G01*
X25460000Y-10175000D01*
G75*
G02*
X25475000Y-10160000I15000J0D01*
G01*
X25505000Y-10160000D01*
G75*
G02*
X25520000Y-10175000I0J-15000D01*
G01*
X25520000Y-10350000D01*
G75*
G02*
X25505000Y-10365000I-15000J0D01*
G01*
G37*
G36*
G01*
X25378000Y-10365000D02*
X25348000Y-10365000D01*
G75*
G02*
X25333000Y-10350000I0J15000D01*
G01*
X25333000Y-10175000D01*
G75*
G02*
X25348000Y-10160000I15000J0D01*
G01*
X25378000Y-10160000D01*
G75*
G02*
X25393000Y-10175000I0J-15000D01*
G01*
X25393000Y-10350000D01*
G75*
G02*
X25378000Y-10365000I-15000J0D01*
G01*
G37*
G36*
G01*
X25251000Y-10365000D02*
X25221000Y-10365000D01*
G75*
G02*
X25206000Y-10350000I0J15000D01*
G01*
X25206000Y-10175000D01*
G75*
G02*
X25221000Y-10160000I15000J0D01*
G01*
X25251000Y-10160000D01*
G75*
G02*
X25266000Y-10175000I0J-15000D01*
G01*
X25266000Y-10350000D01*
G75*
G02*
X25251000Y-10365000I-15000J0D01*
G01*
G37*
G36*
G01*
X25124000Y-10365000D02*
X25094000Y-10365000D01*
G75*
G02*
X25079000Y-10350000I0J15000D01*
G01*
X25079000Y-10175000D01*
G75*
G02*
X25094000Y-10160000I15000J0D01*
G01*
X25124000Y-10160000D01*
G75*
G02*
X25139000Y-10175000I0J-15000D01*
G01*
X25139000Y-10350000D01*
G75*
G02*
X25124000Y-10365000I-15000J0D01*
G01*
G37*
G36*
G01*
X24997000Y-10365000D02*
X24967000Y-10365000D01*
G75*
G02*
X24952000Y-10350000I0J15000D01*
G01*
X24952000Y-10175000D01*
G75*
G02*
X24967000Y-10160000I15000J0D01*
G01*
X24997000Y-10160000D01*
G75*
G02*
X25012000Y-10175000I0J-15000D01*
G01*
X25012000Y-10350000D01*
G75*
G02*
X24997000Y-10365000I-15000J0D01*
G01*
G37*
G36*
G01*
X24870000Y-10365000D02*
X24840000Y-10365000D01*
G75*
G02*
X24825000Y-10350000I0J15000D01*
G01*
X24825000Y-10175000D01*
G75*
G02*
X24840000Y-10160000I15000J0D01*
G01*
X24870000Y-10160000D01*
G75*
G02*
X24885000Y-10175000I0J-15000D01*
G01*
X24885000Y-10350000D01*
G75*
G02*
X24870000Y-10365000I-15000J0D01*
G01*
G37*
G36*
G01*
X24743000Y-10365000D02*
X24713000Y-10365000D01*
G75*
G02*
X24698000Y-10350000I0J15000D01*
G01*
X24698000Y-10175000D01*
G75*
G02*
X24713000Y-10160000I15000J0D01*
G01*
X24743000Y-10160000D01*
G75*
G02*
X24758000Y-10175000I0J-15000D01*
G01*
X24758000Y-10350000D01*
G75*
G02*
X24743000Y-10365000I-15000J0D01*
G01*
G37*
G36*
G01*
X24616000Y-10365000D02*
X24586000Y-10365000D01*
G75*
G02*
X24571000Y-10350000I0J15000D01*
G01*
X24571000Y-10175000D01*
G75*
G02*
X24586000Y-10160000I15000J0D01*
G01*
X24616000Y-10160000D01*
G75*
G02*
X24631000Y-10175000I0J-15000D01*
G01*
X24631000Y-10350000D01*
G75*
G02*
X24616000Y-10365000I-15000J0D01*
G01*
G37*
G36*
G01*
X24489000Y-10365000D02*
X24459000Y-10365000D01*
G75*
G02*
X24444000Y-10350000I0J15000D01*
G01*
X24444000Y-10175000D01*
G75*
G02*
X24459000Y-10160000I15000J0D01*
G01*
X24489000Y-10160000D01*
G75*
G02*
X24504000Y-10175000I0J-15000D01*
G01*
X24504000Y-10350000D01*
G75*
G02*
X24489000Y-10365000I-15000J0D01*
G01*
G37*
G36*
G01*
X21652500Y-13797500D02*
X21597500Y-13797500D01*
G75*
G02*
X21577500Y-13777500I0J20000D01*
G01*
X21577500Y-13737500D01*
G75*
G02*
X21597500Y-13717500I20000J0D01*
G01*
X21652500Y-13717500D01*
G75*
G02*
X21672500Y-13737500I0J-20000D01*
G01*
X21672500Y-13777500D01*
G75*
G02*
X21652500Y-13797500I-20000J0D01*
G01*
G37*
G36*
G01*
X21652500Y-13632500D02*
X21597500Y-13632500D01*
G75*
G02*
X21577500Y-13612500I0J20000D01*
G01*
X21577500Y-13572500D01*
G75*
G02*
X21597500Y-13552500I20000J0D01*
G01*
X21652500Y-13552500D01*
G75*
G02*
X21672500Y-13572500I0J-20000D01*
G01*
X21672500Y-13612500D01*
G75*
G02*
X21652500Y-13632500I-20000J0D01*
G01*
G37*
G36*
G01*
X21077500Y-13632500D02*
X21022500Y-13632500D01*
G75*
G02*
X21002500Y-13612500I0J20000D01*
G01*
X21002500Y-13572500D01*
G75*
G02*
X21022500Y-13552500I20000J0D01*
G01*
X21077500Y-13552500D01*
G75*
G02*
X21097500Y-13572500I0J-20000D01*
G01*
X21097500Y-13612500D01*
G75*
G02*
X21077500Y-13632500I-20000J0D01*
G01*
G37*
G36*
G01*
X21077500Y-13797500D02*
X21022500Y-13797500D01*
G75*
G02*
X21002500Y-13777500I0J20000D01*
G01*
X21002500Y-13737500D01*
G75*
G02*
X21022500Y-13717500I20000J0D01*
G01*
X21077500Y-13717500D01*
G75*
G02*
X21097500Y-13737500I0J-20000D01*
G01*
X21097500Y-13777500D01*
G75*
G02*
X21077500Y-13797500I-20000J0D01*
G01*
G37*
G36*
G01*
X22477500Y-11815000D02*
X22422500Y-11815000D01*
G75*
G02*
X22402500Y-11795000I0J20000D01*
G01*
X22402500Y-11755000D01*
G75*
G02*
X22422500Y-11735000I20000J0D01*
G01*
X22477500Y-11735000D01*
G75*
G02*
X22497500Y-11755000I0J-20000D01*
G01*
X22497500Y-11795000D01*
G75*
G02*
X22477500Y-11815000I-20000J0D01*
G01*
G37*
G36*
G01*
X22477500Y-11650000D02*
X22422500Y-11650000D01*
G75*
G02*
X22402500Y-11630000I0J20000D01*
G01*
X22402500Y-11590000D01*
G75*
G02*
X22422500Y-11570000I20000J0D01*
G01*
X22477500Y-11570000D01*
G75*
G02*
X22497500Y-11590000I0J-20000D01*
G01*
X22497500Y-11630000D01*
G75*
G02*
X22477500Y-11650000I-20000J0D01*
G01*
G37*
G36*
G01*
X25697500Y-9525000D02*
X25642500Y-9525000D01*
G75*
G02*
X25622500Y-9505000I0J20000D01*
G01*
X25622500Y-9465000D01*
G75*
G02*
X25642500Y-9445000I20000J0D01*
G01*
X25697500Y-9445000D01*
G75*
G02*
X25717500Y-9465000I0J-20000D01*
G01*
X25717500Y-9505000D01*
G75*
G02*
X25697500Y-9525000I-20000J0D01*
G01*
G37*
G36*
G01*
X25697500Y-9690000D02*
X25642500Y-9690000D01*
G75*
G02*
X25622500Y-9670000I0J20000D01*
G01*
X25622500Y-9630000D01*
G75*
G02*
X25642500Y-9610000I20000J0D01*
G01*
X25697500Y-9610000D01*
G75*
G02*
X25717500Y-9630000I0J-20000D01*
G01*
X25717500Y-9670000D01*
G75*
G02*
X25697500Y-9690000I-20000J0D01*
G01*
G37*
G36*
G01*
X22627500Y-11650000D02*
X22572500Y-11650000D01*
G75*
G02*
X22552500Y-11630000I0J20000D01*
G01*
X22552500Y-11590000D01*
G75*
G02*
X22572500Y-11570000I20000J0D01*
G01*
X22627500Y-11570000D01*
G75*
G02*
X22647500Y-11590000I0J-20000D01*
G01*
X22647500Y-11630000D01*
G75*
G02*
X22627500Y-11650000I-20000J0D01*
G01*
G37*
G36*
G01*
X22627500Y-11815000D02*
X22572500Y-11815000D01*
G75*
G02*
X22552500Y-11795000I0J20000D01*
G01*
X22552500Y-11755000D01*
G75*
G02*
X22572500Y-11735000I20000J0D01*
G01*
X22627500Y-11735000D01*
G75*
G02*
X22647500Y-11755000I0J-20000D01*
G01*
X22647500Y-11795000D01*
G75*
G02*
X22627500Y-11815000I-20000J0D01*
G01*
G37*
G36*
G01*
X22777500Y-11815000D02*
X22722500Y-11815000D01*
G75*
G02*
X22702500Y-11795000I0J20000D01*
G01*
X22702500Y-11755000D01*
G75*
G02*
X22722500Y-11735000I20000J0D01*
G01*
X22777500Y-11735000D01*
G75*
G02*
X22797500Y-11755000I0J-20000D01*
G01*
X22797500Y-11795000D01*
G75*
G02*
X22777500Y-11815000I-20000J0D01*
G01*
G37*
G36*
G01*
X22777500Y-11650000D02*
X22722500Y-11650000D01*
G75*
G02*
X22702500Y-11630000I0J20000D01*
G01*
X22702500Y-11590000D01*
G75*
G02*
X22722500Y-11570000I20000J0D01*
G01*
X22777500Y-11570000D01*
G75*
G02*
X22797500Y-11590000I0J-20000D01*
G01*
X22797500Y-11630000D01*
G75*
G02*
X22777500Y-11650000I-20000J0D01*
G01*
G37*
D13*
X21862500Y-12532500D03*
D14*
X21862500Y-11902500D03*
X21632500Y-11902500D03*
X22092500Y-11902500D03*
G36*
G01*
X23000000Y-11887500D02*
X23012500Y-11887500D01*
G75*
G02*
X23018750Y-11893750I0J-6250D01*
G01*
X23018750Y-11968750D01*
G75*
G02*
X23012500Y-11975000I-6250J0D01*
G01*
X23000000Y-11975000D01*
G75*
G02*
X22993750Y-11968750I0J6250D01*
G01*
X22993750Y-11893750D01*
G75*
G02*
X23000000Y-11887500I6250J0D01*
G01*
G37*
G36*
G01*
X22950000Y-11887500D02*
X22962500Y-11887500D01*
G75*
G02*
X22968750Y-11893750I0J-6250D01*
G01*
X22968750Y-11968750D01*
G75*
G02*
X22962500Y-11975000I-6250J0D01*
G01*
X22950000Y-11975000D01*
G75*
G02*
X22943750Y-11968750I0J6250D01*
G01*
X22943750Y-11893750D01*
G75*
G02*
X22950000Y-11887500I6250J0D01*
G01*
G37*
G36*
G01*
X22900000Y-11887500D02*
X22912500Y-11887500D01*
G75*
G02*
X22918750Y-11893750I0J-6250D01*
G01*
X22918750Y-11968750D01*
G75*
G02*
X22912500Y-11975000I-6250J0D01*
G01*
X22900000Y-11975000D01*
G75*
G02*
X22893750Y-11968750I0J6250D01*
G01*
X22893750Y-11893750D01*
G75*
G02*
X22900000Y-11887500I6250J0D01*
G01*
G37*
G36*
G01*
X22850000Y-11887500D02*
X22862500Y-11887500D01*
G75*
G02*
X22868750Y-11893750I0J-6250D01*
G01*
X22868750Y-11968750D01*
G75*
G02*
X22862500Y-11975000I-6250J0D01*
G01*
X22850000Y-11975000D01*
G75*
G02*
X22843750Y-11968750I0J6250D01*
G01*
X22843750Y-11893750D01*
G75*
G02*
X22850000Y-11887500I6250J0D01*
G01*
G37*
G36*
G01*
X22800000Y-11887500D02*
X22812500Y-11887500D01*
G75*
G02*
X22818750Y-11893750I0J-6250D01*
G01*
X22818750Y-11968750D01*
G75*
G02*
X22812500Y-11975000I-6250J0D01*
G01*
X22800000Y-11975000D01*
G75*
G02*
X22793750Y-11968750I0J6250D01*
G01*
X22793750Y-11893750D01*
G75*
G02*
X22800000Y-11887500I6250J0D01*
G01*
G37*
G36*
G01*
X22750000Y-11887500D02*
X22762500Y-11887500D01*
G75*
G02*
X22768750Y-11893750I0J-6250D01*
G01*
X22768750Y-11968750D01*
G75*
G02*
X22762500Y-11975000I-6250J0D01*
G01*
X22750000Y-11975000D01*
G75*
G02*
X22743750Y-11968750I0J6250D01*
G01*
X22743750Y-11893750D01*
G75*
G02*
X22750000Y-11887500I6250J0D01*
G01*
G37*
G36*
G01*
X22700000Y-11887500D02*
X22712500Y-11887500D01*
G75*
G02*
X22718750Y-11893750I0J-6250D01*
G01*
X22718750Y-11968750D01*
G75*
G02*
X22712500Y-11975000I-6250J0D01*
G01*
X22700000Y-11975000D01*
G75*
G02*
X22693750Y-11968750I0J6250D01*
G01*
X22693750Y-11893750D01*
G75*
G02*
X22700000Y-11887500I6250J0D01*
G01*
G37*
G36*
G01*
X22650000Y-11887500D02*
X22662500Y-11887500D01*
G75*
G02*
X22668750Y-11893750I0J-6250D01*
G01*
X22668750Y-11968750D01*
G75*
G02*
X22662500Y-11975000I-6250J0D01*
G01*
X22650000Y-11975000D01*
G75*
G02*
X22643750Y-11968750I0J6250D01*
G01*
X22643750Y-11893750D01*
G75*
G02*
X22650000Y-11887500I6250J0D01*
G01*
G37*
G36*
G01*
X22550000Y-11987500D02*
X22625000Y-11987500D01*
G75*
G02*
X22631250Y-11993750I0J-6250D01*
G01*
X22631250Y-12006250D01*
G75*
G02*
X22625000Y-12012500I-6250J0D01*
G01*
X22550000Y-12012500D01*
G75*
G02*
X22543750Y-12006250I0J6250D01*
G01*
X22543750Y-11993750D01*
G75*
G02*
X22550000Y-11987500I6250J0D01*
G01*
G37*
G36*
G01*
X22550000Y-12037500D02*
X22625000Y-12037500D01*
G75*
G02*
X22631250Y-12043750I0J-6250D01*
G01*
X22631250Y-12056250D01*
G75*
G02*
X22625000Y-12062500I-6250J0D01*
G01*
X22550000Y-12062500D01*
G75*
G02*
X22543750Y-12056250I0J6250D01*
G01*
X22543750Y-12043750D01*
G75*
G02*
X22550000Y-12037500I6250J0D01*
G01*
G37*
G36*
G01*
X22550000Y-12087500D02*
X22625000Y-12087500D01*
G75*
G02*
X22631250Y-12093750I0J-6250D01*
G01*
X22631250Y-12106250D01*
G75*
G02*
X22625000Y-12112500I-6250J0D01*
G01*
X22550000Y-12112500D01*
G75*
G02*
X22543750Y-12106250I0J6250D01*
G01*
X22543750Y-12093750D01*
G75*
G02*
X22550000Y-12087500I6250J0D01*
G01*
G37*
G36*
G01*
X22550000Y-12137500D02*
X22625000Y-12137500D01*
G75*
G02*
X22631250Y-12143750I0J-6250D01*
G01*
X22631250Y-12156250D01*
G75*
G02*
X22625000Y-12162500I-6250J0D01*
G01*
X22550000Y-12162500D01*
G75*
G02*
X22543750Y-12156250I0J6250D01*
G01*
X22543750Y-12143750D01*
G75*
G02*
X22550000Y-12137500I6250J0D01*
G01*
G37*
G36*
G01*
X22550000Y-12187500D02*
X22625000Y-12187500D01*
G75*
G02*
X22631250Y-12193750I0J-6250D01*
G01*
X22631250Y-12206250D01*
G75*
G02*
X22625000Y-12212500I-6250J0D01*
G01*
X22550000Y-12212500D01*
G75*
G02*
X22543750Y-12206250I0J6250D01*
G01*
X22543750Y-12193750D01*
G75*
G02*
X22550000Y-12187500I6250J0D01*
G01*
G37*
G36*
G01*
X22550000Y-12237500D02*
X22625000Y-12237500D01*
G75*
G02*
X22631250Y-12243750I0J-6250D01*
G01*
X22631250Y-12256250D01*
G75*
G02*
X22625000Y-12262500I-6250J0D01*
G01*
X22550000Y-12262500D01*
G75*
G02*
X22543750Y-12256250I0J6250D01*
G01*
X22543750Y-12243750D01*
G75*
G02*
X22550000Y-12237500I6250J0D01*
G01*
G37*
G36*
G01*
X22550000Y-12287500D02*
X22625000Y-12287500D01*
G75*
G02*
X22631250Y-12293750I0J-6250D01*
G01*
X22631250Y-12306250D01*
G75*
G02*
X22625000Y-12312500I-6250J0D01*
G01*
X22550000Y-12312500D01*
G75*
G02*
X22543750Y-12306250I0J6250D01*
G01*
X22543750Y-12293750D01*
G75*
G02*
X22550000Y-12287500I6250J0D01*
G01*
G37*
G36*
G01*
X22550000Y-12337500D02*
X22625000Y-12337500D01*
G75*
G02*
X22631250Y-12343750I0J-6250D01*
G01*
X22631250Y-12356250D01*
G75*
G02*
X22625000Y-12362500I-6250J0D01*
G01*
X22550000Y-12362500D01*
G75*
G02*
X22543750Y-12356250I0J6250D01*
G01*
X22543750Y-12343750D01*
G75*
G02*
X22550000Y-12337500I6250J0D01*
G01*
G37*
G36*
G01*
X22650000Y-12375000D02*
X22662500Y-12375000D01*
G75*
G02*
X22668750Y-12381250I0J-6250D01*
G01*
X22668750Y-12456250D01*
G75*
G02*
X22662500Y-12462500I-6250J0D01*
G01*
X22650000Y-12462500D01*
G75*
G02*
X22643750Y-12456250I0J6250D01*
G01*
X22643750Y-12381250D01*
G75*
G02*
X22650000Y-12375000I6250J0D01*
G01*
G37*
G36*
G01*
X22700000Y-12375000D02*
X22712500Y-12375000D01*
G75*
G02*
X22718750Y-12381250I0J-6250D01*
G01*
X22718750Y-12456250D01*
G75*
G02*
X22712500Y-12462500I-6250J0D01*
G01*
X22700000Y-12462500D01*
G75*
G02*
X22693750Y-12456250I0J6250D01*
G01*
X22693750Y-12381250D01*
G75*
G02*
X22700000Y-12375000I6250J0D01*
G01*
G37*
G36*
G01*
X22750000Y-12375000D02*
X22762500Y-12375000D01*
G75*
G02*
X22768750Y-12381250I0J-6250D01*
G01*
X22768750Y-12456250D01*
G75*
G02*
X22762500Y-12462500I-6250J0D01*
G01*
X22750000Y-12462500D01*
G75*
G02*
X22743750Y-12456250I0J6250D01*
G01*
X22743750Y-12381250D01*
G75*
G02*
X22750000Y-12375000I6250J0D01*
G01*
G37*
G36*
G01*
X22800000Y-12375000D02*
X22812500Y-12375000D01*
G75*
G02*
X22818750Y-12381250I0J-6250D01*
G01*
X22818750Y-12456250D01*
G75*
G02*
X22812500Y-12462500I-6250J0D01*
G01*
X22800000Y-12462500D01*
G75*
G02*
X22793750Y-12456250I0J6250D01*
G01*
X22793750Y-12381250D01*
G75*
G02*
X22800000Y-12375000I6250J0D01*
G01*
G37*
G36*
G01*
X22850000Y-12375000D02*
X22862500Y-12375000D01*
G75*
G02*
X22868750Y-12381250I0J-6250D01*
G01*
X22868750Y-12456250D01*
G75*
G02*
X22862500Y-12462500I-6250J0D01*
G01*
X22850000Y-12462500D01*
G75*
G02*
X22843750Y-12456250I0J6250D01*
G01*
X22843750Y-12381250D01*
G75*
G02*
X22850000Y-12375000I6250J0D01*
G01*
G37*
G36*
G01*
X22900000Y-12375000D02*
X22912500Y-12375000D01*
G75*
G02*
X22918750Y-12381250I0J-6250D01*
G01*
X22918750Y-12456250D01*
G75*
G02*
X22912500Y-12462500I-6250J0D01*
G01*
X22900000Y-12462500D01*
G75*
G02*
X22893750Y-12456250I0J6250D01*
G01*
X22893750Y-12381250D01*
G75*
G02*
X22900000Y-12375000I6250J0D01*
G01*
G37*
G36*
G01*
X22950000Y-12375000D02*
X22962500Y-12375000D01*
G75*
G02*
X22968750Y-12381250I0J-6250D01*
G01*
X22968750Y-12456250D01*
G75*
G02*
X22962500Y-12462500I-6250J0D01*
G01*
X22950000Y-12462500D01*
G75*
G02*
X22943750Y-12456250I0J6250D01*
G01*
X22943750Y-12381250D01*
G75*
G02*
X22950000Y-12375000I6250J0D01*
G01*
G37*
G36*
G01*
X23000000Y-12375000D02*
X23012500Y-12375000D01*
G75*
G02*
X23018750Y-12381250I0J-6250D01*
G01*
X23018750Y-12456250D01*
G75*
G02*
X23012500Y-12462500I-6250J0D01*
G01*
X23000000Y-12462500D01*
G75*
G02*
X22993750Y-12456250I0J6250D01*
G01*
X22993750Y-12381250D01*
G75*
G02*
X23000000Y-12375000I6250J0D01*
G01*
G37*
G36*
G01*
X23037500Y-12337500D02*
X23112500Y-12337500D01*
G75*
G02*
X23118750Y-12343750I0J-6250D01*
G01*
X23118750Y-12356250D01*
G75*
G02*
X23112500Y-12362500I-6250J0D01*
G01*
X23037500Y-12362500D01*
G75*
G02*
X23031250Y-12356250I0J6250D01*
G01*
X23031250Y-12343750D01*
G75*
G02*
X23037500Y-12337500I6250J0D01*
G01*
G37*
G36*
G01*
X23037500Y-12287500D02*
X23112500Y-12287500D01*
G75*
G02*
X23118750Y-12293750I0J-6250D01*
G01*
X23118750Y-12306250D01*
G75*
G02*
X23112500Y-12312500I-6250J0D01*
G01*
X23037500Y-12312500D01*
G75*
G02*
X23031250Y-12306250I0J6250D01*
G01*
X23031250Y-12293750D01*
G75*
G02*
X23037500Y-12287500I6250J0D01*
G01*
G37*
G36*
G01*
X23037500Y-12237500D02*
X23112500Y-12237500D01*
G75*
G02*
X23118750Y-12243750I0J-6250D01*
G01*
X23118750Y-12256250D01*
G75*
G02*
X23112500Y-12262500I-6250J0D01*
G01*
X23037500Y-12262500D01*
G75*
G02*
X23031250Y-12256250I0J6250D01*
G01*
X23031250Y-12243750D01*
G75*
G02*
X23037500Y-12237500I6250J0D01*
G01*
G37*
G36*
G01*
X23037500Y-12187500D02*
X23112500Y-12187500D01*
G75*
G02*
X23118750Y-12193750I0J-6250D01*
G01*
X23118750Y-12206250D01*
G75*
G02*
X23112500Y-12212500I-6250J0D01*
G01*
X23037500Y-12212500D01*
G75*
G02*
X23031250Y-12206250I0J6250D01*
G01*
X23031250Y-12193750D01*
G75*
G02*
X23037500Y-12187500I6250J0D01*
G01*
G37*
G36*
G01*
X23037500Y-12137500D02*
X23112500Y-12137500D01*
G75*
G02*
X23118750Y-12143750I0J-6250D01*
G01*
X23118750Y-12156250D01*
G75*
G02*
X23112500Y-12162500I-6250J0D01*
G01*
X23037500Y-12162500D01*
G75*
G02*
X23031250Y-12156250I0J6250D01*
G01*
X23031250Y-12143750D01*
G75*
G02*
X23037500Y-12137500I6250J0D01*
G01*
G37*
G36*
G01*
X23037500Y-12087500D02*
X23112500Y-12087500D01*
G75*
G02*
X23118750Y-12093750I0J-6250D01*
G01*
X23118750Y-12106250D01*
G75*
G02*
X23112500Y-12112500I-6250J0D01*
G01*
X23037500Y-12112500D01*
G75*
G02*
X23031250Y-12106250I0J6250D01*
G01*
X23031250Y-12093750D01*
G75*
G02*
X23037500Y-12087500I6250J0D01*
G01*
G37*
G36*
G01*
X23037500Y-12037500D02*
X23112500Y-12037500D01*
G75*
G02*
X23118750Y-12043750I0J-6250D01*
G01*
X23118750Y-12056250D01*
G75*
G02*
X23112500Y-12062500I-6250J0D01*
G01*
X23037500Y-12062500D01*
G75*
G02*
X23031250Y-12056250I0J6250D01*
G01*
X23031250Y-12043750D01*
G75*
G02*
X23037500Y-12037500I6250J0D01*
G01*
G37*
G36*
G01*
X23037500Y-11987500D02*
X23112500Y-11987500D01*
G75*
G02*
X23118750Y-11993750I0J-6250D01*
G01*
X23118750Y-12006250D01*
G75*
G02*
X23112500Y-12012500I-6250J0D01*
G01*
X23037500Y-12012500D01*
G75*
G02*
X23031250Y-12006250I0J6250D01*
G01*
X23031250Y-11993750D01*
G75*
G02*
X23037500Y-11987500I6250J0D01*
G01*
G37*
D15*
X22831250Y-12175000D03*
G36*
G01*
X25675000Y-13507500D02*
X25725000Y-13507500D01*
G75*
G02*
X25747500Y-13530000I0J-22500D01*
G01*
X25747500Y-13575000D01*
G75*
G02*
X25725000Y-13597500I-22500J0D01*
G01*
X25675000Y-13597500D01*
G75*
G02*
X25652500Y-13575000I0J22500D01*
G01*
X25652500Y-13530000D01*
G75*
G02*
X25675000Y-13507500I22500J0D01*
G01*
G37*
G36*
G01*
X25675000Y-13352500D02*
X25725000Y-13352500D01*
G75*
G02*
X25747500Y-13375000I0J-22500D01*
G01*
X25747500Y-13420000D01*
G75*
G02*
X25725000Y-13442500I-22500J0D01*
G01*
X25675000Y-13442500D01*
G75*
G02*
X25652500Y-13420000I0J22500D01*
G01*
X25652500Y-13375000D01*
G75*
G02*
X25675000Y-13352500I22500J0D01*
G01*
G37*
G36*
G01*
X24550000Y-13200000D02*
X24600000Y-13200000D01*
G75*
G02*
X24622500Y-13222500I0J-22500D01*
G01*
X24622500Y-13267500D01*
G75*
G02*
X24600000Y-13290000I-22500J0D01*
G01*
X24550000Y-13290000D01*
G75*
G02*
X24527500Y-13267500I0J22500D01*
G01*
X24527500Y-13222500D01*
G75*
G02*
X24550000Y-13200000I22500J0D01*
G01*
G37*
G36*
G01*
X24550000Y-13355000D02*
X24600000Y-13355000D01*
G75*
G02*
X24622500Y-13377500I0J-22500D01*
G01*
X24622500Y-13422500D01*
G75*
G02*
X24600000Y-13445000I-22500J0D01*
G01*
X24550000Y-13445000D01*
G75*
G02*
X24527500Y-13422500I0J22500D01*
G01*
X24527500Y-13377500D01*
G75*
G02*
X24550000Y-13355000I22500J0D01*
G01*
G37*
G36*
G01*
X21592500Y-11625000D02*
X21592500Y-11675000D01*
G75*
G02*
X21570000Y-11697500I-22500J0D01*
G01*
X21525000Y-11697500D01*
G75*
G02*
X21502500Y-11675000I0J22500D01*
G01*
X21502500Y-11625000D01*
G75*
G02*
X21525000Y-11602500I22500J0D01*
G01*
X21570000Y-11602500D01*
G75*
G02*
X21592500Y-11625000I0J-22500D01*
G01*
G37*
G36*
G01*
X21747500Y-11625000D02*
X21747500Y-11675000D01*
G75*
G02*
X21725000Y-11697500I-22500J0D01*
G01*
X21680000Y-11697500D01*
G75*
G02*
X21657500Y-11675000I0J22500D01*
G01*
X21657500Y-11625000D01*
G75*
G02*
X21680000Y-11602500I22500J0D01*
G01*
X21725000Y-11602500D01*
G75*
G02*
X21747500Y-11625000I0J-22500D01*
G01*
G37*
G36*
G01*
X22625000Y-12525000D02*
X22675000Y-12525000D01*
G75*
G02*
X22697500Y-12547500I0J-22500D01*
G01*
X22697500Y-12592500D01*
G75*
G02*
X22675000Y-12615000I-22500J0D01*
G01*
X22625000Y-12615000D01*
G75*
G02*
X22602500Y-12592500I0J22500D01*
G01*
X22602500Y-12547500D01*
G75*
G02*
X22625000Y-12525000I22500J0D01*
G01*
G37*
G36*
G01*
X22625000Y-12680000D02*
X22675000Y-12680000D01*
G75*
G02*
X22697500Y-12702500I0J-22500D01*
G01*
X22697500Y-12747500D01*
G75*
G02*
X22675000Y-12770000I-22500J0D01*
G01*
X22625000Y-12770000D01*
G75*
G02*
X22602500Y-12747500I0J22500D01*
G01*
X22602500Y-12702500D01*
G75*
G02*
X22625000Y-12680000I22500J0D01*
G01*
G37*
G36*
G01*
X22392500Y-12500000D02*
X22392500Y-12550000D01*
G75*
G02*
X22370000Y-12572500I-22500J0D01*
G01*
X22325000Y-12572500D01*
G75*
G02*
X22302500Y-12550000I0J22500D01*
G01*
X22302500Y-12500000D01*
G75*
G02*
X22325000Y-12477500I22500J0D01*
G01*
X22370000Y-12477500D01*
G75*
G02*
X22392500Y-12500000I0J-22500D01*
G01*
G37*
G36*
G01*
X22547500Y-12500000D02*
X22547500Y-12550000D01*
G75*
G02*
X22525000Y-12572500I-22500J0D01*
G01*
X22480000Y-12572500D01*
G75*
G02*
X22457500Y-12550000I0J22500D01*
G01*
X22457500Y-12500000D01*
G75*
G02*
X22480000Y-12477500I22500J0D01*
G01*
X22525000Y-12477500D01*
G75*
G02*
X22547500Y-12500000I0J-22500D01*
G01*
G37*
G36*
G01*
X21975000Y-12702500D02*
X22025000Y-12702500D01*
G75*
G02*
X22047500Y-12725000I0J-22500D01*
G01*
X22047500Y-12770000D01*
G75*
G02*
X22025000Y-12792500I-22500J0D01*
G01*
X21975000Y-12792500D01*
G75*
G02*
X21952500Y-12770000I0J22500D01*
G01*
X21952500Y-12725000D01*
G75*
G02*
X21975000Y-12702500I22500J0D01*
G01*
G37*
G36*
G01*
X21975000Y-12857500D02*
X22025000Y-12857500D01*
G75*
G02*
X22047500Y-12880000I0J-22500D01*
G01*
X22047500Y-12925000D01*
G75*
G02*
X22025000Y-12947500I-22500J0D01*
G01*
X21975000Y-12947500D01*
G75*
G02*
X21952500Y-12925000I0J22500D01*
G01*
X21952500Y-12880000D01*
G75*
G02*
X21975000Y-12857500I22500J0D01*
G01*
G37*
G36*
G01*
X23150000Y-11667500D02*
X23100000Y-11667500D01*
G75*
G02*
X23077500Y-11645000I0J22500D01*
G01*
X23077500Y-11600000D01*
G75*
G02*
X23100000Y-11577500I22500J0D01*
G01*
X23150000Y-11577500D01*
G75*
G02*
X23172500Y-11600000I0J-22500D01*
G01*
X23172500Y-11645000D01*
G75*
G02*
X23150000Y-11667500I-22500J0D01*
G01*
G37*
G36*
G01*
X23150000Y-11822500D02*
X23100000Y-11822500D01*
G75*
G02*
X23077500Y-11800000I0J22500D01*
G01*
X23077500Y-11755000D01*
G75*
G02*
X23100000Y-11732500I22500J0D01*
G01*
X23150000Y-11732500D01*
G75*
G02*
X23172500Y-11755000I0J-22500D01*
G01*
X23172500Y-11800000D01*
G75*
G02*
X23150000Y-11822500I-22500J0D01*
G01*
G37*
G36*
G01*
X23000000Y-11822500D02*
X22950000Y-11822500D01*
G75*
G02*
X22927500Y-11800000I0J22500D01*
G01*
X22927500Y-11755000D01*
G75*
G02*
X22950000Y-11732500I22500J0D01*
G01*
X23000000Y-11732500D01*
G75*
G02*
X23022500Y-11755000I0J-22500D01*
G01*
X23022500Y-11800000D01*
G75*
G02*
X23000000Y-11822500I-22500J0D01*
G01*
G37*
G36*
G01*
X23000000Y-11667500D02*
X22950000Y-11667500D01*
G75*
G02*
X22927500Y-11645000I0J22500D01*
G01*
X22927500Y-11600000D01*
G75*
G02*
X22950000Y-11577500I22500J0D01*
G01*
X23000000Y-11577500D01*
G75*
G02*
X23022500Y-11600000I0J-22500D01*
G01*
X23022500Y-11645000D01*
G75*
G02*
X23000000Y-11667500I-22500J0D01*
G01*
G37*
G36*
G01*
X22925000Y-12525000D02*
X22975000Y-12525000D01*
G75*
G02*
X22997500Y-12547500I0J-22500D01*
G01*
X22997500Y-12592500D01*
G75*
G02*
X22975000Y-12615000I-22500J0D01*
G01*
X22925000Y-12615000D01*
G75*
G02*
X22902500Y-12592500I0J22500D01*
G01*
X22902500Y-12547500D01*
G75*
G02*
X22925000Y-12525000I22500J0D01*
G01*
G37*
G36*
G01*
X22925000Y-12680000D02*
X22975000Y-12680000D01*
G75*
G02*
X22997500Y-12702500I0J-22500D01*
G01*
X22997500Y-12747500D01*
G75*
G02*
X22975000Y-12770000I-22500J0D01*
G01*
X22925000Y-12770000D01*
G75*
G02*
X22902500Y-12747500I0J22500D01*
G01*
X22902500Y-12702500D01*
G75*
G02*
X22925000Y-12680000I22500J0D01*
G01*
G37*
G36*
G01*
X22775000Y-12525000D02*
X22825000Y-12525000D01*
G75*
G02*
X22847500Y-12547500I0J-22500D01*
G01*
X22847500Y-12592500D01*
G75*
G02*
X22825000Y-12615000I-22500J0D01*
G01*
X22775000Y-12615000D01*
G75*
G02*
X22752500Y-12592500I0J22500D01*
G01*
X22752500Y-12547500D01*
G75*
G02*
X22775000Y-12525000I22500J0D01*
G01*
G37*
G36*
G01*
X22775000Y-12680000D02*
X22825000Y-12680000D01*
G75*
G02*
X22847500Y-12702500I0J-22500D01*
G01*
X22847500Y-12747500D01*
G75*
G02*
X22825000Y-12770000I-22500J0D01*
G01*
X22775000Y-12770000D01*
G75*
G02*
X22752500Y-12747500I0J22500D01*
G01*
X22752500Y-12702500D01*
G75*
G02*
X22775000Y-12680000I22500J0D01*
G01*
G37*
G36*
G01*
X25475000Y-13057500D02*
X25525000Y-13057500D01*
G75*
G02*
X25547500Y-13080000I0J-22500D01*
G01*
X25547500Y-13125000D01*
G75*
G02*
X25525000Y-13147500I-22500J0D01*
G01*
X25475000Y-13147500D01*
G75*
G02*
X25452500Y-13125000I0J22500D01*
G01*
X25452500Y-13080000D01*
G75*
G02*
X25475000Y-13057500I22500J0D01*
G01*
G37*
G36*
G01*
X25475000Y-12902500D02*
X25525000Y-12902500D01*
G75*
G02*
X25547500Y-12925000I0J-22500D01*
G01*
X25547500Y-12970000D01*
G75*
G02*
X25525000Y-12992500I-22500J0D01*
G01*
X25475000Y-12992500D01*
G75*
G02*
X25452500Y-12970000I0J22500D01*
G01*
X25452500Y-12925000D01*
G75*
G02*
X25475000Y-12902500I22500J0D01*
G01*
G37*
G36*
G01*
X26032500Y-13547500D02*
X26032500Y-13602500D01*
G75*
G02*
X26012500Y-13622500I-20000J0D01*
G01*
X25972500Y-13622500D01*
G75*
G02*
X25952500Y-13602500I0J20000D01*
G01*
X25952500Y-13547500D01*
G75*
G02*
X25972500Y-13527500I20000J0D01*
G01*
X26012500Y-13527500D01*
G75*
G02*
X26032500Y-13547500I0J-20000D01*
G01*
G37*
G36*
G01*
X26197500Y-13547500D02*
X26197500Y-13602500D01*
G75*
G02*
X26177500Y-13622500I-20000J0D01*
G01*
X26137500Y-13622500D01*
G75*
G02*
X26117500Y-13602500I0J20000D01*
G01*
X26117500Y-13547500D01*
G75*
G02*
X26137500Y-13527500I20000J0D01*
G01*
X26177500Y-13527500D01*
G75*
G02*
X26197500Y-13547500I0J-20000D01*
G01*
G37*
G36*
G01*
X24602500Y-13747500D02*
X24547500Y-13747500D01*
G75*
G02*
X24527500Y-13727500I0J20000D01*
G01*
X24527500Y-13687500D01*
G75*
G02*
X24547500Y-13667500I20000J0D01*
G01*
X24602500Y-13667500D01*
G75*
G02*
X24622500Y-13687500I0J-20000D01*
G01*
X24622500Y-13727500D01*
G75*
G02*
X24602500Y-13747500I-20000J0D01*
G01*
G37*
G36*
G01*
X24602500Y-13582500D02*
X24547500Y-13582500D01*
G75*
G02*
X24527500Y-13562500I0J20000D01*
G01*
X24527500Y-13522500D01*
G75*
G02*
X24547500Y-13502500I20000J0D01*
G01*
X24602500Y-13502500D01*
G75*
G02*
X24622500Y-13522500I0J-20000D01*
G01*
X24622500Y-13562500D01*
G75*
G02*
X24602500Y-13582500I-20000J0D01*
G01*
G37*
G36*
G01*
X25822500Y-13360000D02*
X25877500Y-13360000D01*
G75*
G02*
X25897500Y-13380000I0J-20000D01*
G01*
X25897500Y-13420000D01*
G75*
G02*
X25877500Y-13440000I-20000J0D01*
G01*
X25822500Y-13440000D01*
G75*
G02*
X25802500Y-13420000I0J20000D01*
G01*
X25802500Y-13380000D01*
G75*
G02*
X25822500Y-13360000I20000J0D01*
G01*
G37*
G36*
G01*
X25822500Y-13525000D02*
X25877500Y-13525000D01*
G75*
G02*
X25897500Y-13545000I0J-20000D01*
G01*
X25897500Y-13585000D01*
G75*
G02*
X25877500Y-13605000I-20000J0D01*
G01*
X25822500Y-13605000D01*
G75*
G02*
X25802500Y-13585000I0J20000D01*
G01*
X25802500Y-13545000D01*
G75*
G02*
X25822500Y-13525000I20000J0D01*
G01*
G37*
G36*
G01*
X24722500Y-13360000D02*
X24777500Y-13360000D01*
G75*
G02*
X24797500Y-13380000I0J-20000D01*
G01*
X24797500Y-13420000D01*
G75*
G02*
X24777500Y-13440000I-20000J0D01*
G01*
X24722500Y-13440000D01*
G75*
G02*
X24702500Y-13420000I0J20000D01*
G01*
X24702500Y-13380000D01*
G75*
G02*
X24722500Y-13360000I20000J0D01*
G01*
G37*
G36*
G01*
X24722500Y-13195000D02*
X24777500Y-13195000D01*
G75*
G02*
X24797500Y-13215000I0J-20000D01*
G01*
X24797500Y-13255000D01*
G75*
G02*
X24777500Y-13275000I-20000J0D01*
G01*
X24722500Y-13275000D01*
G75*
G02*
X24702500Y-13255000I0J20000D01*
G01*
X24702500Y-13215000D01*
G75*
G02*
X24722500Y-13195000I20000J0D01*
G01*
G37*
D11*
X25575000Y-14500000D03*
X24175000Y-14500000D03*
D12*
X25975000Y-13975000D03*
X24575000Y-13975000D03*
G36*
G01*
X24460000Y-12000000D02*
X24460000Y-11950000D01*
G75*
G02*
X24482500Y-11927500I22500J0D01*
G01*
X24527500Y-11927500D01*
G75*
G02*
X24550000Y-11950000I0J-22500D01*
G01*
X24550000Y-12000000D01*
G75*
G02*
X24527500Y-12022500I-22500J0D01*
G01*
X24482500Y-12022500D01*
G75*
G02*
X24460000Y-12000000I0J22500D01*
G01*
G37*
G36*
G01*
X24305000Y-12000000D02*
X24305000Y-11950000D01*
G75*
G02*
X24327500Y-11927500I22500J0D01*
G01*
X24372500Y-11927500D01*
G75*
G02*
X24395000Y-11950000I0J-22500D01*
G01*
X24395000Y-12000000D01*
G75*
G02*
X24372500Y-12022500I-22500J0D01*
G01*
X24327500Y-12022500D01*
G75*
G02*
X24305000Y-12000000I0J22500D01*
G01*
G37*
G36*
G01*
X24880000Y-13274500D02*
X24880000Y-13244500D01*
G75*
G02*
X24895000Y-13229500I15000J0D01*
G01*
X25030000Y-13229500D01*
G75*
G02*
X25045000Y-13244500I0J-15000D01*
G01*
X25045000Y-13274500D01*
G75*
G02*
X25030000Y-13289500I-15000J0D01*
G01*
X24895000Y-13289500D01*
G75*
G02*
X24880000Y-13274500I0J15000D01*
G01*
G37*
G36*
G01*
X24880000Y-13401500D02*
X24880000Y-13371500D01*
G75*
G02*
X24895000Y-13356500I15000J0D01*
G01*
X25030000Y-13356500D01*
G75*
G02*
X25045000Y-13371500I0J-15000D01*
G01*
X25045000Y-13401500D01*
G75*
G02*
X25030000Y-13416500I-15000J0D01*
G01*
X24895000Y-13416500D01*
G75*
G02*
X24880000Y-13401500I0J15000D01*
G01*
G37*
G36*
G01*
X24880000Y-13528500D02*
X24880000Y-13498500D01*
G75*
G02*
X24895000Y-13483500I15000J0D01*
G01*
X25030000Y-13483500D01*
G75*
G02*
X25045000Y-13498500I0J-15000D01*
G01*
X25045000Y-13528500D01*
G75*
G02*
X25030000Y-13543500I-15000J0D01*
G01*
X24895000Y-13543500D01*
G75*
G02*
X24880000Y-13528500I0J15000D01*
G01*
G37*
G36*
G01*
X24880000Y-13655500D02*
X24880000Y-13625500D01*
G75*
G02*
X24895000Y-13610500I15000J0D01*
G01*
X25030000Y-13610500D01*
G75*
G02*
X25045000Y-13625500I0J-15000D01*
G01*
X25045000Y-13655500D01*
G75*
G02*
X25030000Y-13670500I-15000J0D01*
G01*
X24895000Y-13670500D01*
G75*
G02*
X24880000Y-13655500I0J15000D01*
G01*
G37*
G36*
G01*
X25405000Y-13655500D02*
X25405000Y-13625500D01*
G75*
G02*
X25420000Y-13610500I15000J0D01*
G01*
X25555000Y-13610500D01*
G75*
G02*
X25570000Y-13625500I0J-15000D01*
G01*
X25570000Y-13655500D01*
G75*
G02*
X25555000Y-13670500I-15000J0D01*
G01*
X25420000Y-13670500D01*
G75*
G02*
X25405000Y-13655500I0J15000D01*
G01*
G37*
G36*
G01*
X25405000Y-13528500D02*
X25405000Y-13498500D01*
G75*
G02*
X25420000Y-13483500I15000J0D01*
G01*
X25555000Y-13483500D01*
G75*
G02*
X25570000Y-13498500I0J-15000D01*
G01*
X25570000Y-13528500D01*
G75*
G02*
X25555000Y-13543500I-15000J0D01*
G01*
X25420000Y-13543500D01*
G75*
G02*
X25405000Y-13528500I0J15000D01*
G01*
G37*
G36*
G01*
X25405000Y-13401500D02*
X25405000Y-13371500D01*
G75*
G02*
X25420000Y-13356500I15000J0D01*
G01*
X25555000Y-13356500D01*
G75*
G02*
X25570000Y-13371500I0J-15000D01*
G01*
X25570000Y-13401500D01*
G75*
G02*
X25555000Y-13416500I-15000J0D01*
G01*
X25420000Y-13416500D01*
G75*
G02*
X25405000Y-13401500I0J15000D01*
G01*
G37*
G36*
G01*
X25405000Y-13274500D02*
X25405000Y-13244500D01*
G75*
G02*
X25420000Y-13229500I15000J0D01*
G01*
X25555000Y-13229500D01*
G75*
G02*
X25570000Y-13244500I0J-15000D01*
G01*
X25570000Y-13274500D01*
G75*
G02*
X25555000Y-13289500I-15000J0D01*
G01*
X25420000Y-13289500D01*
G75*
G02*
X25405000Y-13274500I0J15000D01*
G01*
G37*
G36*
G01*
X25010000Y-11810000D02*
X25010000Y-11830000D01*
G75*
G02*
X25000000Y-11840000I-10000J0D01*
G01*
X24872500Y-11840000D01*
G75*
G02*
X24862500Y-11830000I0J10000D01*
G01*
X24862500Y-11810000D01*
G75*
G02*
X24872500Y-11800000I10000J0D01*
G01*
X25000000Y-11800000D01*
G75*
G02*
X25010000Y-11810000I0J-10000D01*
G01*
G37*
G36*
G01*
X25010000Y-11745000D02*
X25010000Y-11765000D01*
G75*
G02*
X25000000Y-11775000I-10000J0D01*
G01*
X24872500Y-11775000D01*
G75*
G02*
X24862500Y-11765000I0J10000D01*
G01*
X24862500Y-11745000D01*
G75*
G02*
X24872500Y-11735000I10000J0D01*
G01*
X25000000Y-11735000D01*
G75*
G02*
X25010000Y-11745000I0J-10000D01*
G01*
G37*
G36*
G01*
X25010000Y-11680000D02*
X25010000Y-11700000D01*
G75*
G02*
X25000000Y-11710000I-10000J0D01*
G01*
X24872500Y-11710000D01*
G75*
G02*
X24862500Y-11700000I0J10000D01*
G01*
X24862500Y-11680000D01*
G75*
G02*
X24872500Y-11670000I10000J0D01*
G01*
X25000000Y-11670000D01*
G75*
G02*
X25010000Y-11680000I0J-10000D01*
G01*
G37*
G36*
G01*
X25010000Y-11615000D02*
X25010000Y-11635000D01*
G75*
G02*
X25000000Y-11645000I-10000J0D01*
G01*
X24872500Y-11645000D01*
G75*
G02*
X24862500Y-11635000I0J10000D01*
G01*
X24862500Y-11615000D01*
G75*
G02*
X24872500Y-11605000I10000J0D01*
G01*
X25000000Y-11605000D01*
G75*
G02*
X25010000Y-11615000I0J-10000D01*
G01*
G37*
G36*
G01*
X25010000Y-11550000D02*
X25010000Y-11570000D01*
G75*
G02*
X25000000Y-11580000I-10000J0D01*
G01*
X24872500Y-11580000D01*
G75*
G02*
X24862500Y-11570000I0J10000D01*
G01*
X24862500Y-11550000D01*
G75*
G02*
X24872500Y-11540000I10000J0D01*
G01*
X25000000Y-11540000D01*
G75*
G02*
X25010000Y-11550000I0J-10000D01*
G01*
G37*
G36*
G01*
X25010000Y-11485000D02*
X25010000Y-11505000D01*
G75*
G02*
X25000000Y-11515000I-10000J0D01*
G01*
X24872500Y-11515000D01*
G75*
G02*
X24862500Y-11505000I0J10000D01*
G01*
X24862500Y-11485000D01*
G75*
G02*
X24872500Y-11475000I10000J0D01*
G01*
X25000000Y-11475000D01*
G75*
G02*
X25010000Y-11485000I0J-10000D01*
G01*
G37*
G36*
G01*
X25010000Y-11420000D02*
X25010000Y-11440000D01*
G75*
G02*
X25000000Y-11450000I-10000J0D01*
G01*
X24872500Y-11450000D01*
G75*
G02*
X24862500Y-11440000I0J10000D01*
G01*
X24862500Y-11420000D01*
G75*
G02*
X24872500Y-11410000I10000J0D01*
G01*
X25000000Y-11410000D01*
G75*
G02*
X25010000Y-11420000I0J-10000D01*
G01*
G37*
G36*
G01*
X24437500Y-11420000D02*
X24437500Y-11440000D01*
G75*
G02*
X24427500Y-11450000I-10000J0D01*
G01*
X24300000Y-11450000D01*
G75*
G02*
X24290000Y-11440000I0J10000D01*
G01*
X24290000Y-11420000D01*
G75*
G02*
X24300000Y-11410000I10000J0D01*
G01*
X24427500Y-11410000D01*
G75*
G02*
X24437500Y-11420000I0J-10000D01*
G01*
G37*
G36*
G01*
X24437500Y-11485000D02*
X24437500Y-11505000D01*
G75*
G02*
X24427500Y-11515000I-10000J0D01*
G01*
X24300000Y-11515000D01*
G75*
G02*
X24290000Y-11505000I0J10000D01*
G01*
X24290000Y-11485000D01*
G75*
G02*
X24300000Y-11475000I10000J0D01*
G01*
X24427500Y-11475000D01*
G75*
G02*
X24437500Y-11485000I0J-10000D01*
G01*
G37*
G36*
G01*
X24437500Y-11550000D02*
X24437500Y-11570000D01*
G75*
G02*
X24427500Y-11580000I-10000J0D01*
G01*
X24300000Y-11580000D01*
G75*
G02*
X24290000Y-11570000I0J10000D01*
G01*
X24290000Y-11550000D01*
G75*
G02*
X24300000Y-11540000I10000J0D01*
G01*
X24427500Y-11540000D01*
G75*
G02*
X24437500Y-11550000I0J-10000D01*
G01*
G37*
G36*
G01*
X24437500Y-11615000D02*
X24437500Y-11635000D01*
G75*
G02*
X24427500Y-11645000I-10000J0D01*
G01*
X24300000Y-11645000D01*
G75*
G02*
X24290000Y-11635000I0J10000D01*
G01*
X24290000Y-11615000D01*
G75*
G02*
X24300000Y-11605000I10000J0D01*
G01*
X24427500Y-11605000D01*
G75*
G02*
X24437500Y-11615000I0J-10000D01*
G01*
G37*
G36*
G01*
X24437500Y-11680000D02*
X24437500Y-11700000D01*
G75*
G02*
X24427500Y-11710000I-10000J0D01*
G01*
X24300000Y-11710000D01*
G75*
G02*
X24290000Y-11700000I0J10000D01*
G01*
X24290000Y-11680000D01*
G75*
G02*
X24300000Y-11670000I10000J0D01*
G01*
X24427500Y-11670000D01*
G75*
G02*
X24437500Y-11680000I0J-10000D01*
G01*
G37*
G36*
G01*
X24437500Y-11745000D02*
X24437500Y-11765000D01*
G75*
G02*
X24427500Y-11775000I-10000J0D01*
G01*
X24300000Y-11775000D01*
G75*
G02*
X24290000Y-11765000I0J10000D01*
G01*
X24290000Y-11745000D01*
G75*
G02*
X24300000Y-11735000I10000J0D01*
G01*
X24427500Y-11735000D01*
G75*
G02*
X24437500Y-11745000I0J-10000D01*
G01*
G37*
G36*
G01*
X24437500Y-11810000D02*
X24437500Y-11830000D01*
G75*
G02*
X24427500Y-11840000I-10000J0D01*
G01*
X24300000Y-11840000D01*
G75*
G02*
X24290000Y-11830000I0J10000D01*
G01*
X24290000Y-11810000D01*
G75*
G02*
X24300000Y-11800000I10000J0D01*
G01*
X24427500Y-11800000D01*
G75*
G02*
X24437500Y-11810000I0J-10000D01*
G01*
G37*
G36*
G01*
X24190000Y-12475000D02*
X24190000Y-12525000D01*
G75*
G02*
X24167500Y-12547500I-22500J0D01*
G01*
X24122500Y-12547500D01*
G75*
G02*
X24100000Y-12525000I0J22500D01*
G01*
X24100000Y-12475000D01*
G75*
G02*
X24122500Y-12452500I22500J0D01*
G01*
X24167500Y-12452500D01*
G75*
G02*
X24190000Y-12475000I0J-22500D01*
G01*
G37*
G36*
G01*
X24345000Y-12475000D02*
X24345000Y-12525000D01*
G75*
G02*
X24322500Y-12547500I-22500J0D01*
G01*
X24277500Y-12547500D01*
G75*
G02*
X24255000Y-12525000I0J22500D01*
G01*
X24255000Y-12475000D01*
G75*
G02*
X24277500Y-12452500I22500J0D01*
G01*
X24322500Y-12452500D01*
G75*
G02*
X24345000Y-12475000I0J-22500D01*
G01*
G37*
G36*
G01*
X24065000Y-11337500D02*
X24015000Y-11337500D01*
G75*
G02*
X23992500Y-11315000I0J22500D01*
G01*
X23992500Y-11270000D01*
G75*
G02*
X24015000Y-11247500I22500J0D01*
G01*
X24065000Y-11247500D01*
G75*
G02*
X24087500Y-11270000I0J-22500D01*
G01*
X24087500Y-11315000D01*
G75*
G02*
X24065000Y-11337500I-22500J0D01*
G01*
G37*
G36*
G01*
X24065000Y-11182500D02*
X24015000Y-11182500D01*
G75*
G02*
X23992500Y-11160000I0J22500D01*
G01*
X23992500Y-11115000D01*
G75*
G02*
X24015000Y-11092500I22500J0D01*
G01*
X24065000Y-11092500D01*
G75*
G02*
X24087500Y-11115000I0J-22500D01*
G01*
X24087500Y-11160000D01*
G75*
G02*
X24065000Y-11182500I-22500J0D01*
G01*
G37*
G36*
G01*
X23325000Y-12027500D02*
X23375000Y-12027500D01*
G75*
G02*
X23397500Y-12050000I0J-22500D01*
G01*
X23397500Y-12095000D01*
G75*
G02*
X23375000Y-12117500I-22500J0D01*
G01*
X23325000Y-12117500D01*
G75*
G02*
X23302500Y-12095000I0J22500D01*
G01*
X23302500Y-12050000D01*
G75*
G02*
X23325000Y-12027500I22500J0D01*
G01*
G37*
G36*
G01*
X23325000Y-12182500D02*
X23375000Y-12182500D01*
G75*
G02*
X23397500Y-12205000I0J-22500D01*
G01*
X23397500Y-12250000D01*
G75*
G02*
X23375000Y-12272500I-22500J0D01*
G01*
X23325000Y-12272500D01*
G75*
G02*
X23302500Y-12250000I0J22500D01*
G01*
X23302500Y-12205000D01*
G75*
G02*
X23325000Y-12182500I22500J0D01*
G01*
G37*
G36*
G01*
X23802500Y-12527500D02*
X23802500Y-12472500D01*
G75*
G02*
X23822500Y-12452500I20000J0D01*
G01*
X23862500Y-12452500D01*
G75*
G02*
X23882500Y-12472500I0J-20000D01*
G01*
X23882500Y-12527500D01*
G75*
G02*
X23862500Y-12547500I-20000J0D01*
G01*
X23822500Y-12547500D01*
G75*
G02*
X23802500Y-12527500I0J20000D01*
G01*
G37*
G36*
G01*
X23967500Y-12527500D02*
X23967500Y-12472500D01*
G75*
G02*
X23987500Y-12452500I20000J0D01*
G01*
X24027500Y-12452500D01*
G75*
G02*
X24047500Y-12472500I0J-20000D01*
G01*
X24047500Y-12527500D01*
G75*
G02*
X24027500Y-12547500I-20000J0D01*
G01*
X23987500Y-12547500D01*
G75*
G02*
X23967500Y-12527500I0J20000D01*
G01*
G37*
G36*
G01*
X24467500Y-12177500D02*
X24467500Y-12122500D01*
G75*
G02*
X24487500Y-12102500I20000J0D01*
G01*
X24527500Y-12102500D01*
G75*
G02*
X24547500Y-12122500I0J-20000D01*
G01*
X24547500Y-12177500D01*
G75*
G02*
X24527500Y-12197500I-20000J0D01*
G01*
X24487500Y-12197500D01*
G75*
G02*
X24467500Y-12177500I0J20000D01*
G01*
G37*
G36*
G01*
X24302500Y-12177500D02*
X24302500Y-12122500D01*
G75*
G02*
X24322500Y-12102500I20000J0D01*
G01*
X24362500Y-12102500D01*
G75*
G02*
X24382500Y-12122500I0J-20000D01*
G01*
X24382500Y-12177500D01*
G75*
G02*
X24362500Y-12197500I-20000J0D01*
G01*
X24322500Y-12197500D01*
G75*
G02*
X24302500Y-12177500I0J20000D01*
G01*
G37*
G36*
G01*
X23477500Y-11468000D02*
X23477500Y-11438000D01*
G75*
G02*
X23492500Y-11423000I15000J0D01*
G01*
X23662500Y-11423000D01*
G75*
G02*
X23677500Y-11438000I0J-15000D01*
G01*
X23677500Y-11468000D01*
G75*
G02*
X23662500Y-11483000I-15000J0D01*
G01*
X23492500Y-11483000D01*
G75*
G02*
X23477500Y-11468000I0J15000D01*
G01*
G37*
G36*
G01*
X23477500Y-11595000D02*
X23477500Y-11565000D01*
G75*
G02*
X23492500Y-11550000I15000J0D01*
G01*
X23662500Y-11550000D01*
G75*
G02*
X23677500Y-11565000I0J-15000D01*
G01*
X23677500Y-11595000D01*
G75*
G02*
X23662500Y-11610000I-15000J0D01*
G01*
X23492500Y-11610000D01*
G75*
G02*
X23477500Y-11595000I0J15000D01*
G01*
G37*
G36*
G01*
X23477500Y-11722000D02*
X23477500Y-11692000D01*
G75*
G02*
X23492500Y-11677000I15000J0D01*
G01*
X23662500Y-11677000D01*
G75*
G02*
X23677500Y-11692000I0J-15000D01*
G01*
X23677500Y-11722000D01*
G75*
G02*
X23662500Y-11737000I-15000J0D01*
G01*
X23492500Y-11737000D01*
G75*
G02*
X23477500Y-11722000I0J15000D01*
G01*
G37*
G36*
G01*
X23477500Y-11849000D02*
X23477500Y-11819000D01*
G75*
G02*
X23492500Y-11804000I15000J0D01*
G01*
X23662500Y-11804000D01*
G75*
G02*
X23677500Y-11819000I0J-15000D01*
G01*
X23677500Y-11849000D01*
G75*
G02*
X23662500Y-11864000I-15000J0D01*
G01*
X23492500Y-11864000D01*
G75*
G02*
X23477500Y-11849000I0J15000D01*
G01*
G37*
G36*
G01*
X23477500Y-11976000D02*
X23477500Y-11946000D01*
G75*
G02*
X23492500Y-11931000I15000J0D01*
G01*
X23662500Y-11931000D01*
G75*
G02*
X23677500Y-11946000I0J-15000D01*
G01*
X23677500Y-11976000D01*
G75*
G02*
X23662500Y-11991000I-15000J0D01*
G01*
X23492500Y-11991000D01*
G75*
G02*
X23477500Y-11976000I0J15000D01*
G01*
G37*
G36*
G01*
X23477500Y-12103000D02*
X23477500Y-12073000D01*
G75*
G02*
X23492500Y-12058000I15000J0D01*
G01*
X23662500Y-12058000D01*
G75*
G02*
X23677500Y-12073000I0J-15000D01*
G01*
X23677500Y-12103000D01*
G75*
G02*
X23662500Y-12118000I-15000J0D01*
G01*
X23492500Y-12118000D01*
G75*
G02*
X23477500Y-12103000I0J15000D01*
G01*
G37*
G36*
G01*
X23477500Y-12230000D02*
X23477500Y-12200000D01*
G75*
G02*
X23492500Y-12185000I15000J0D01*
G01*
X23662500Y-12185000D01*
G75*
G02*
X23677500Y-12200000I0J-15000D01*
G01*
X23677500Y-12230000D01*
G75*
G02*
X23662500Y-12245000I-15000J0D01*
G01*
X23492500Y-12245000D01*
G75*
G02*
X23477500Y-12230000I0J15000D01*
G01*
G37*
G36*
G01*
X23477500Y-12357000D02*
X23477500Y-12327000D01*
G75*
G02*
X23492500Y-12312000I15000J0D01*
G01*
X23662500Y-12312000D01*
G75*
G02*
X23677500Y-12327000I0J-15000D01*
G01*
X23677500Y-12357000D01*
G75*
G02*
X23662500Y-12372000I-15000J0D01*
G01*
X23492500Y-12372000D01*
G75*
G02*
X23477500Y-12357000I0J15000D01*
G01*
G37*
G36*
G01*
X23977500Y-12357000D02*
X23977500Y-12327000D01*
G75*
G02*
X23992500Y-12312000I15000J0D01*
G01*
X24162500Y-12312000D01*
G75*
G02*
X24177500Y-12327000I0J-15000D01*
G01*
X24177500Y-12357000D01*
G75*
G02*
X24162500Y-12372000I-15000J0D01*
G01*
X23992500Y-12372000D01*
G75*
G02*
X23977500Y-12357000I0J15000D01*
G01*
G37*
G36*
G01*
X23977500Y-12230000D02*
X23977500Y-12200000D01*
G75*
G02*
X23992500Y-12185000I15000J0D01*
G01*
X24162500Y-12185000D01*
G75*
G02*
X24177500Y-12200000I0J-15000D01*
G01*
X24177500Y-12230000D01*
G75*
G02*
X24162500Y-12245000I-15000J0D01*
G01*
X23992500Y-12245000D01*
G75*
G02*
X23977500Y-12230000I0J15000D01*
G01*
G37*
G36*
G01*
X23977500Y-12103000D02*
X23977500Y-12073000D01*
G75*
G02*
X23992500Y-12058000I15000J0D01*
G01*
X24162500Y-12058000D01*
G75*
G02*
X24177500Y-12073000I0J-15000D01*
G01*
X24177500Y-12103000D01*
G75*
G02*
X24162500Y-12118000I-15000J0D01*
G01*
X23992500Y-12118000D01*
G75*
G02*
X23977500Y-12103000I0J15000D01*
G01*
G37*
G36*
G01*
X23977500Y-11976000D02*
X23977500Y-11946000D01*
G75*
G02*
X23992500Y-11931000I15000J0D01*
G01*
X24162500Y-11931000D01*
G75*
G02*
X24177500Y-11946000I0J-15000D01*
G01*
X24177500Y-11976000D01*
G75*
G02*
X24162500Y-11991000I-15000J0D01*
G01*
X23992500Y-11991000D01*
G75*
G02*
X23977500Y-11976000I0J15000D01*
G01*
G37*
G36*
G01*
X23977500Y-11849000D02*
X23977500Y-11819000D01*
G75*
G02*
X23992500Y-11804000I15000J0D01*
G01*
X24162500Y-11804000D01*
G75*
G02*
X24177500Y-11819000I0J-15000D01*
G01*
X24177500Y-11849000D01*
G75*
G02*
X24162500Y-11864000I-15000J0D01*
G01*
X23992500Y-11864000D01*
G75*
G02*
X23977500Y-11849000I0J15000D01*
G01*
G37*
G36*
G01*
X23977500Y-11722000D02*
X23977500Y-11692000D01*
G75*
G02*
X23992500Y-11677000I15000J0D01*
G01*
X24162500Y-11677000D01*
G75*
G02*
X24177500Y-11692000I0J-15000D01*
G01*
X24177500Y-11722000D01*
G75*
G02*
X24162500Y-11737000I-15000J0D01*
G01*
X23992500Y-11737000D01*
G75*
G02*
X23977500Y-11722000I0J15000D01*
G01*
G37*
G36*
G01*
X23977500Y-11595000D02*
X23977500Y-11565000D01*
G75*
G02*
X23992500Y-11550000I15000J0D01*
G01*
X24162500Y-11550000D01*
G75*
G02*
X24177500Y-11565000I0J-15000D01*
G01*
X24177500Y-11595000D01*
G75*
G02*
X24162500Y-11610000I-15000J0D01*
G01*
X23992500Y-11610000D01*
G75*
G02*
X23977500Y-11595000I0J15000D01*
G01*
G37*
G36*
G01*
X23977500Y-11468000D02*
X23977500Y-11438000D01*
G75*
G02*
X23992500Y-11423000I15000J0D01*
G01*
X24162500Y-11423000D01*
G75*
G02*
X24177500Y-11438000I0J-15000D01*
G01*
X24177500Y-11468000D01*
G75*
G02*
X24162500Y-11483000I-15000J0D01*
G01*
X23992500Y-11483000D01*
G75*
G02*
X23977500Y-11468000I0J15000D01*
G01*
G37*
D16*
X24245000Y-11055000D03*
X24245000Y-11185000D03*
X26125000Y-11130000D03*
X26125000Y-11000000D03*
G36*
G01*
X24372500Y-10200000D02*
X24372500Y-10250000D01*
G75*
G02*
X24350000Y-10272500I-22500J0D01*
G01*
X24305000Y-10272500D01*
G75*
G02*
X24282500Y-10250000I0J22500D01*
G01*
X24282500Y-10200000D01*
G75*
G02*
X24305000Y-10177500I22500J0D01*
G01*
X24350000Y-10177500D01*
G75*
G02*
X24372500Y-10200000I0J-22500D01*
G01*
G37*
G36*
G01*
X24217500Y-10200000D02*
X24217500Y-10250000D01*
G75*
G02*
X24195000Y-10272500I-22500J0D01*
G01*
X24150000Y-10272500D01*
G75*
G02*
X24127500Y-10250000I0J22500D01*
G01*
X24127500Y-10200000D01*
G75*
G02*
X24150000Y-10177500I22500J0D01*
G01*
X24195000Y-10177500D01*
G75*
G02*
X24217500Y-10200000I0J-22500D01*
G01*
G37*
G36*
G01*
X22305000Y-12645000D02*
X22415000Y-12645000D01*
G75*
G02*
X22440000Y-12670000I0J-25000D01*
G01*
X22440000Y-12880000D01*
G75*
G02*
X22415000Y-12905000I-25000J0D01*
G01*
X22305000Y-12905000D01*
G75*
G02*
X22280000Y-12880000I0J25000D01*
G01*
X22280000Y-12670000D01*
G75*
G02*
X22305000Y-12645000I25000J0D01*
G01*
G37*
G36*
G01*
X22305000Y-13005000D02*
X22415000Y-13005000D01*
G75*
G02*
X22440000Y-13030000I0J-25000D01*
G01*
X22440000Y-13240000D01*
G75*
G02*
X22415000Y-13265000I-25000J0D01*
G01*
X22305000Y-13265000D01*
G75*
G02*
X22280000Y-13240000I0J25000D01*
G01*
X22280000Y-13030000D01*
G75*
G02*
X22305000Y-13005000I25000J0D01*
G01*
G37*
G36*
G01*
X23205000Y-11100000D02*
X23095000Y-11100000D01*
G75*
G02*
X23070000Y-11075000I0J25000D01*
G01*
X23070000Y-10865000D01*
G75*
G02*
X23095000Y-10840000I25000J0D01*
G01*
X23205000Y-10840000D01*
G75*
G02*
X23230000Y-10865000I0J-25000D01*
G01*
X23230000Y-11075000D01*
G75*
G02*
X23205000Y-11100000I-25000J0D01*
G01*
G37*
G36*
G01*
X23205000Y-11460000D02*
X23095000Y-11460000D01*
G75*
G02*
X23070000Y-11435000I0J25000D01*
G01*
X23070000Y-11225000D01*
G75*
G02*
X23095000Y-11200000I25000J0D01*
G01*
X23205000Y-11200000D01*
G75*
G02*
X23230000Y-11225000I0J-25000D01*
G01*
X23230000Y-11435000D01*
G75*
G02*
X23205000Y-11460000I-25000J0D01*
G01*
G37*
G36*
G01*
X23090000Y-12730000D02*
X23090000Y-12620000D01*
G75*
G02*
X23115000Y-12595000I25000J0D01*
G01*
X23325000Y-12595000D01*
G75*
G02*
X23350000Y-12620000I0J-25000D01*
G01*
X23350000Y-12730000D01*
G75*
G02*
X23325000Y-12755000I-25000J0D01*
G01*
X23115000Y-12755000D01*
G75*
G02*
X23090000Y-12730000I0J25000D01*
G01*
G37*
G36*
G01*
X23450000Y-12730000D02*
X23450000Y-12620000D01*
G75*
G02*
X23475000Y-12595000I25000J0D01*
G01*
X23685000Y-12595000D01*
G75*
G02*
X23710000Y-12620000I0J-25000D01*
G01*
X23710000Y-12730000D01*
G75*
G02*
X23685000Y-12755000I-25000J0D01*
G01*
X23475000Y-12755000D01*
G75*
G02*
X23450000Y-12730000I0J25000D01*
G01*
G37*
D17*
X20875000Y-8900000D03*
D18*
X20875000Y-8646000D03*
X21129000Y-8900000D03*
X21129000Y-8646000D03*
X21383000Y-8900000D03*
X21383000Y-8646000D03*
X21637000Y-8900000D03*
X21637000Y-8646000D03*
X21891000Y-8900000D03*
X21891000Y-8646000D03*
X22145000Y-8900000D03*
X22145000Y-8646000D03*
X22399000Y-8900000D03*
X22399000Y-8646000D03*
X22653000Y-8900000D03*
X22653000Y-8646000D03*
X22907000Y-8900000D03*
X22907000Y-8646000D03*
X23161000Y-8900000D03*
X23161000Y-8646000D03*
X23415000Y-8900000D03*
X23415000Y-8646000D03*
X23669000Y-8900000D03*
X23669000Y-8646000D03*
X23923000Y-8900000D03*
X23923000Y-8646000D03*
X24177000Y-8900000D03*
X24177000Y-8646000D03*
X24431000Y-8900000D03*
X24431000Y-8646000D03*
X24685000Y-8900000D03*
X24685000Y-8646000D03*
X24939000Y-8900000D03*
X24939000Y-8646000D03*
X25193000Y-8900000D03*
X25193000Y-8646000D03*
X25447000Y-8900000D03*
X25447000Y-8646000D03*
X25701000Y-8900000D03*
X25701000Y-8646000D03*
G36*
G01*
X23680000Y-13005000D02*
X23680000Y-12895000D01*
G75*
G02*
X23705000Y-12870000I25000J0D01*
G01*
X23955000Y-12870000D01*
G75*
G02*
X23980000Y-12895000I0J-25000D01*
G01*
X23980000Y-13005000D01*
G75*
G02*
X23955000Y-13030000I-25000J0D01*
G01*
X23705000Y-13030000D01*
G75*
G02*
X23680000Y-13005000I0J25000D01*
G01*
G37*
G36*
G01*
X24120000Y-13005000D02*
X24120000Y-12895000D01*
G75*
G02*
X24145000Y-12870000I25000J0D01*
G01*
X24395000Y-12870000D01*
G75*
G02*
X24420000Y-12895000I0J-25000D01*
G01*
X24420000Y-13005000D01*
G75*
G02*
X24395000Y-13030000I-25000J0D01*
G01*
X24145000Y-13030000D01*
G75*
G02*
X24120000Y-13005000I0J25000D01*
G01*
G37*
G36*
G01*
X24120000Y-13585000D02*
X24120000Y-13475000D01*
G75*
G02*
X24145000Y-13450000I25000J0D01*
G01*
X24395000Y-13450000D01*
G75*
G02*
X24420000Y-13475000I0J-25000D01*
G01*
X24420000Y-13585000D01*
G75*
G02*
X24395000Y-13610000I-25000J0D01*
G01*
X24145000Y-13610000D01*
G75*
G02*
X24120000Y-13585000I0J25000D01*
G01*
G37*
G36*
G01*
X23680000Y-13585000D02*
X23680000Y-13475000D01*
G75*
G02*
X23705000Y-13450000I25000J0D01*
G01*
X23955000Y-13450000D01*
G75*
G02*
X23980000Y-13475000I0J-25000D01*
G01*
X23980000Y-13585000D01*
G75*
G02*
X23955000Y-13610000I-25000J0D01*
G01*
X23705000Y-13610000D01*
G75*
G02*
X23680000Y-13585000I0J25000D01*
G01*
G37*
G36*
G01*
X21570000Y-12755000D02*
X21680000Y-12755000D01*
G75*
G02*
X21705000Y-12780000I0J-25000D01*
G01*
X21705000Y-13030000D01*
G75*
G02*
X21680000Y-13055000I-25000J0D01*
G01*
X21570000Y-13055000D01*
G75*
G02*
X21545000Y-13030000I0J25000D01*
G01*
X21545000Y-12780000D01*
G75*
G02*
X21570000Y-12755000I25000J0D01*
G01*
G37*
G36*
G01*
X21570000Y-13195000D02*
X21680000Y-13195000D01*
G75*
G02*
X21705000Y-13220000I0J-25000D01*
G01*
X21705000Y-13470000D01*
G75*
G02*
X21680000Y-13495000I-25000J0D01*
G01*
X21570000Y-13495000D01*
G75*
G02*
X21545000Y-13470000I0J25000D01*
G01*
X21545000Y-13220000D01*
G75*
G02*
X21570000Y-13195000I25000J0D01*
G01*
G37*
G36*
G01*
X20985000Y-13195000D02*
X21095000Y-13195000D01*
G75*
G02*
X21120000Y-13220000I0J-25000D01*
G01*
X21120000Y-13470000D01*
G75*
G02*
X21095000Y-13495000I-25000J0D01*
G01*
X20985000Y-13495000D01*
G75*
G02*
X20960000Y-13470000I0J25000D01*
G01*
X20960000Y-13220000D01*
G75*
G02*
X20985000Y-13195000I25000J0D01*
G01*
G37*
G36*
G01*
X20985000Y-12755000D02*
X21095000Y-12755000D01*
G75*
G02*
X21120000Y-12780000I0J-25000D01*
G01*
X21120000Y-13030000D01*
G75*
G02*
X21095000Y-13055000I-25000J0D01*
G01*
X20985000Y-13055000D01*
G75*
G02*
X20960000Y-13030000I0J25000D01*
G01*
X20960000Y-12780000D01*
G75*
G02*
X20985000Y-12755000I25000J0D01*
G01*
G37*
M02*
